<?xml version="1.0" standalone="no"?>
<!DOCTYPE svg PUBLIC "-//W3C//DTD SVG 1.1//EN" "http://www.w3.org/Graphics/SVG/1.1/DTD/svg11.dtd" >
<svg>
<metadata>
Created by FontForge 20090914 at Wed Sep 18 08:25:46 2019
 By www-data
Typeface &#194;&#169; (your company). 2019. All Rights Reserved
</metadata>
<defs>
<font id="SweetDream" horiz-adv-x="1014" >
  <font-face 
    font-family="Sweet Dream"
    font-weight="400"
    font-stretch="normal"
    units-per-em="2048"
    panose-1="2 0 6 0 0 0 0 0 0 0"
    ascent="1638"
    descent="-410"
    x-height="945.001"
    cap-height="1437"
    bbox="-545 -320 2007 1503"
    underline-thickness="150"
    underline-position="-142"
    unicode-range="U+001D-U+FB02"
  />
<missing-glyph horiz-adv-x="1024" 
 />
    <glyph glyph-name=".notdef" horiz-adv-x="1024" 
 />
    <glyph glyph-name=".notdef" horiz-adv-x="1024" 
 />
    <glyph glyph-name="space" unicode=" " horiz-adv-x="508" 
 />
    <glyph glyph-name="space" unicode="&#xa0;" horiz-adv-x="508" 
 />
    <glyph glyph-name="exclam" unicode="!" horiz-adv-x="394" 
d="M80 294l-6.00098 0.000976562c-14.667 4 -22 13.333 -22 28v6c2 7.33301 15 71.333 39 192c70.667 363.333 124 677.666 160 942.999c2.66699 16 12.334 24 29.001 24h3c16.667 -2.66699 25 -12.334 25 -29.001v-3c-22 -163.333 -48.333 -331.666 -79 -504.999
s-58 -320.5 -82 -441.5s-36.833 -185 -38.5 -192s-5.16699 -12.5 -10.5 -16.5s-11.333 -6 -18 -6zM28.999 105.001c-28 0 -41.999 14.667 -41.999 44c0 12.667 3.16699 27.167 9.5 43.5s16.166 29.5 29.499 39.5c7.33301 5.33301 15 8 23 8s16.333 -2.33301 25 -7l3 -14
c2 -14.667 3 -28.667 3 -42c0 -11.333 -1.66699 -23 -5 -35c-6.66699 -24.667 -22 -37 -46 -37z" />
    <glyph glyph-name="quotedbl" unicode="&#x22;" horiz-adv-x="229" 
d="M25 1250c-9.33301 0 -14 4.66699 -14 14l15 102c1.33301 8 6 12 14 12c9.33301 0 14 -4.33301 14 -13l-15 -103c-1.33301 -8 -6 -12 -14 -12zM102 1250c-9.33301 0 -14 4.66699 -14 14l15 102c1.33301 8 6 12 14 12c10 0 15 -5.33301 15 -16l-16 -100
c-1.33301 -8 -6 -12 -14 -12z" />
    <glyph glyph-name="numbersign" unicode="#" horiz-adv-x="924" 
d="M502 186c-12 0 -20.6719 3.83594 -26.0049 11.5029s-8 15.5 -8 23.5l54 451l-58 -19c-50.667 -17.333 -108 -34 -172 -50l-47 -387c-0.666992 -8.66699 -4.33398 -15.834 -11.001 -21.501s-14.334 -8.5 -23.001 -8.5c-11.333 0 -19.833 3.83301 -25.5 11.5
s-8.5 15.5 -8.5 23.5l44 367c-64 -13.333 -136.333 -20 -217 -20c-3.33301 0 -6.5 1.5 -9.5 4.5s-4.5 6.16699 -4.5 9.5c0 4 1.5 7.5 4.5 10.5s6.16699 4.5 9.5 4.5c82 0 155.667 7 221 21l22 180c-64.667 -13.333 -137.334 -20 -218.001 -20c-9.33301 0 -14 4.66699 -14 14
c0 10 4.66699 15 14 15c82 0 155.667 7 221 21l51 421c1.33301 9.33301 5.33301 16.666 12 21.999s14.334 8 23.001 8c10 0 18.667 -4.33301 26 -13c4.66699 -6.66699 7 -14 7 -22l-48 -401c47.333 12.667 124 36 230 70l40 336c1.33301 9.33301 5.5 16.666 12.5 21.999
s14.5 8 22.5 8c10.667 0 19.334 -4.33301 26.001 -13c4.66699 -6 7 -12.667 7 -20l-37 -315c30.667 7.33301 61.334 11 92.001 11c7.33301 0 21.833 -0.833008 43.5 -2.5s51.5 -11.834 89.5 -30.501c5.33301 -3.33301 8 -7.66602 8 -12.999c0 -2 -0.833008 -4.33301 -2.5 -7
s-3.66699 -4.5 -6 -5.5s-4.5 -1.5 -6.5 -1.5s-4 0.666992 -6 2c-40 19.333 -79.667 29 -119 29c-31.333 0 -63.666 -4 -96.999 -12l-21 -180c30.667 7.33301 61.334 11 92.001 11c7.33301 0 21.833 -0.666992 43.5 -2s51.5 -11.666 89.5 -30.999
c4.66699 -2.66699 7.33398 -6.66699 8.00098 -12c0 -2 -0.666992 -4.33301 -2 -7c-2 -5.33301 -6 -8 -12 -8c-2 0 -4.33301 0.666992 -7 2c-38 19.333 -77.667 29 -119 29c-31.333 0 -63.666 -4 -96.999 -12l-57 -475c-1.33301 -8.66699 -5.16602 -15.834 -11.499 -21.501
s-13.833 -8.5 -22.5 -8.5zM295.995 633.003c58.667 15.333 111.667 31 159 47l70 23l22 179l-58 -19c-50.667 -17.333 -108 -34 -172 -50z" />
    <glyph glyph-name="dollar" unicode="$" horiz-adv-x="754" 
d="M201 -2h-3.99414c-16 2.66699 -24 12 -24 28l17 111l-34 -2c-43.333 0 -85.666 5 -126.999 15c-7.33301 1.33301 -11 5.33301 -11 12c0 10.667 4.33301 16 13 16l5 -1c37.333 -8.66699 74.666 -13 111.999 -13c17.333 0 32.666 0.666992 45.999 2l88 561
c0 0.666992 -0.333008 1 -1 1s-1.33398 0.333008 -2.00098 1h-2c-16.667 6.66699 -33 14 -49 22h-2c-127.333 63.333 -197.333 139.666 -210 228.999c-2.66699 16 -4 31 -4 45c0 17.333 2 33.333 6 48c19.333 76 63.666 141.667 132.999 197s146.666 87.666 231.999 96.999
l18 112c2.66699 16 11.667 24 27 24h5c16 -2.66699 24 -12 24 -28l-16 -108c4.66699 0 9 -0.333008 13 -1c141.333 -24 212 -141.333 212 -352c0 -34 -1.66699 -55.667 -5 -65c-1.33301 -8 -6 -12 -14 -12c-9.33301 0 -14 4.66699 -14 14v2c2.66699 4.66699 4 26 4 64
c0 18.667 -1 42.834 -3 72.501s-9 62.834 -21 99.501s-30.667 68.667 -56 96c-28 29.333 -68.333 47.333 -121 54l-95 -607c142.667 -72 214 -165 214 -279c0 -10 -0.666992 -20.333 -2 -31c-10.667 -68 -43.334 -126.833 -98.001 -176.5s-123.334 -83.167 -206.001 -100.5
l-20 -123c-2.66699 -16 -12 -24 -28 -24zM287.006 756l91.001 579c-42.667 -11.333 -88.667 -36 -138 -74s-87 -97 -113 -177c-11.333 -34 -17 -75 -17 -123c0 -48.667 18.333 -95.667 55 -141c21.333 -15.333 45.666 -29.333 72.999 -42c0 -0.666992 0.333008 -1 1 -1z
M253.007 175l15.999 3.99902c62.667 28.667 107.334 65.334 134.001 110.001c38 64.667 57 132.334 57 203.001c0 33.333 -7 67.166 -21 101.499s-35 63.5 -63 87.5l-40 22z" />
    <glyph glyph-name="percent" unicode="%" horiz-adv-x="787" 
d="M25 132c-6 0 -11.332 2.33398 -15.999 7.00098s-7 11.667 -7 21c0 101.333 25.333 233 76 395c33.333 110 93.5 239.333 180.5 388s212.167 301.667 375.5 459c4.66699 4 9.66699 6 15 6c7.33301 0 13.166 -2.33301 17.499 -7s6.5 -10 6.5 -16
c-0.666992 -6 -3 -11.333 -7 -16c-270 -257.333 -450.667 -531.333 -542 -822c-51.333 -162.667 -77 -291.334 -77 -386.001l1 -6c0 -14 -7.66699 -21.667 -23 -23zM184.001 172.001l-16 1.99902c-16.667 4.66699 -25 19.334 -25 44.001c0 12 3 26.167 9 42.5
s16 29.5 30 39.5c6.66699 4.66699 14 7 22 7s16.667 -2.33301 26 -7l3 -15c1.33301 -10 2 -24 2 -42c0 -10.667 -1.66699 -22 -5 -34c-6.66699 -24.667 -22 -37 -46 -37zM381.001 1247c-5.33301 0 -11.332 0.667969 -17.999 2.00098c-16.667 4 -25 18.667 -25 44
c0 12 3 26 9 42s15.667 29 29 39c7.33301 4.66699 15 7 23 7s16.333 -2 25 -6l3 -15c2 -14.667 3 -28.334 3 -41.001c0 -12 -1.66699 -24 -5 -36c-6.66699 -24 -21.334 -36 -44.001 -36z" />
    <glyph glyph-name="ampersand" unicode="&#x26;" horiz-adv-x="716" 
d="M435 45c-5.33301 0 -9.66602 2.66504 -12.999 7.99805l-9 17c-14 26.667 -43 85.334 -87 176.001c-25.333 -17.333 -50.666 -33.333 -75.999 -48c-97.333 -55.333 -174.666 -83 -231.999 -83h-44c-29.333 0 -53.333 15.667 -72 47c-11.333 17.333 -17 37.666 -17 60.999
c0 30 12.5 72.333 37.5 127s87.5 120.334 187.5 197.001c11.333 8.66699 23.666 17.334 36.999 26.001l26 19c-106 263.333 -159 459.333 -159 588c0 46 6.66699 83.333 20 112c24 50.667 70 76 138 76h5c96.667 -6.66699 169.667 -66.667 219 -180
c21.333 -50.667 32 -110 32 -178c0 -133.333 -51 -255.333 -153 -366l-5 -5c45.333 -112.667 88.666 -213.667 129.999 -303c56.667 44.667 115 96 175 154c3.33301 2.66699 6.66602 4 9.99902 4c4 0 7.33301 -1.33301 10 -4s4 -5.66699 4 -9
c0 -4.66699 -1.33301 -8.66699 -4 -12c-62 -59.333 -122 -112 -180 -158c-0.666992 0 -1.16699 -0.166992 -1.5 -0.5l-1.5 -1.5l82 -174c3.33301 -7.33301 5 -15 5 -23c0 -18.667 -8 -33 -24 -43c-24.667 -16 -38 -24 -40 -24zM259 667.998
c79.333 90.667 124.666 182 135.999 274c3.33301 26 5 51 5 75c0 60 -10.333 113.333 -31 160c-44 102.667 -108.333 156.667 -193 162c-2 0.666992 -4.33301 1 -7 1l-5 -1c-30 -34.667 -45 -84.667 -45 -150v-16c8.66699 -120 55.334 -288.333 140.001 -505zM16 142.998
c2.66699 0 17.332 0.5 43.999 1.5s85.334 27.167 176.001 78.5c26 14.667 52 31 78 49c-48 102 -91.333 199.667 -130 293c-6.66699 -5.33301 -13.667 -10.333 -21 -15c-13.333 -8.66699 -25.333 -17.334 -36 -26.001c-90 -69.333 -151.667 -135.666 -185 -198.999
c-19.333 -38 -29 -71 -29 -99c0 -55.333 34.333 -83 103 -83z" />
    <glyph glyph-name="quotesingle" unicode="'" horiz-adv-x="158" 
d="M44 1190c-9.33301 0 -14.001 4.33301 -14.001 13l30 164c2.66699 7.33301 7.33398 11 14.001 11c9.33301 0 14 -4.33301 14 -13l-30 -164c-1.33301 -7.33301 -6 -11 -14 -11z" />
    <glyph glyph-name="parenleft" unicode="(" horiz-adv-x="399" 
d="M175 141c-4.66699 0 -8.66895 2.00293 -12.002 6.00293c-30.667 46.667 -56.667 95.667 -78 147c-46.667 115.333 -70 230.666 -70 345.999c0 116 15.167 224.667 45.5 326s67.833 189 112.5 263c39.333 64 77 109.333 113 136c2.66699 2 5.33398 3 8.00098 3
c4.66699 0 8.16699 -1.66699 10.5 -5s3.5 -6.33301 3.5 -9c0 -4.66699 -2 -8.66699 -6 -12c-32.667 -24.667 -67.667 -67.334 -105 -128.001c-60.667 -122 -101.667 -284 -123 -486c-4 -61.333 -6 -116.666 -6 -165.999c0 -68.667 4 -125.334 12 -170.001
c24.667 -82.667 60.334 -159 107.001 -229c1.33301 -2.66699 2 -5.33398 2 -8.00098c0 -9.33301 -4.66699 -14 -14 -14z" />
    <glyph glyph-name="parenright" unicode=")" horiz-adv-x="426" 
d="M151 141c-9.33301 0 -14.002 4.66406 -14.002 13.9971c0 2.66699 0.666992 5.33398 2 8.00098c46.667 70 82.334 146.333 107.001 229c8 44.667 12 101.334 12 170.001c0 49.333 -2 104.666 -6 165.999c-21.333 202 -62.333 364 -123 486
c-37.333 60.667 -72.333 103.334 -105 128.001c-4 3.33301 -6 7.33301 -6 12c0 2.66699 1.16699 5.66699 3.5 9s5.83301 5 10.5 5c2.66699 0 5.33398 -1 8.00098 -3c36 -26.667 73.667 -72 113 -136c44.667 -74 82.167 -161.667 112.5 -263s45.5 -210 45.5 -326
c0 -115.333 -23.333 -230.666 -70 -345.999c-21.333 -51.333 -47.333 -100.333 -78 -147c-3.33301 -4 -7.33301 -6 -12 -6z" />
    <glyph glyph-name="asterisk" unicode="*" horiz-adv-x="350" 
d="M119 1098c-10 0 -15 5.33203 -15 15.999l10 80c-38.667 -36.667 -60 -55 -64 -55s-7.33301 1.33301 -10 4s-4 5.66699 -4 9v4.5c0 2.33301 22.333 24.833 67 67.5h-80c-9.33301 0 -14 4.66699 -14 14s4.66699 14 14 14h57l-67 68c-2.66699 3.33301 -4 6.66602 -4 9.99902
c0 9.33301 4.66699 14 14 14c4 0 7.33301 -1.33301 10 -4l87 -88l13 114c1.33301 8 6 12 14 12c10 0 15 -5 15 -15l-11 -94c41.333 39.333 64 59 68 59c9.33301 0 14 -5 14 -15c0 -3.33301 -1.33301 -6.66602 -4 -9.99902l-54 -51h70c9.33301 0 14 -4.66699 14 -14
s-4.66699 -14 -14 -14h-96c42.667 -43.333 64 -66.666 64 -69.999c0 -4 -1.5 -7.5 -4.5 -10.5s-6.5 -4.5 -10.5 -4.5c-3.33301 0 -22 17 -56 51l-9 -80c-1.33301 -8 -6 -12 -14 -12z" />
    <glyph glyph-name="plus" unicode="+" horiz-adv-x="1071" 
d="M388 237h-2.99902c-16.667 2.66699 -25 12 -25 28l50 527c-180 0 -297.333 -22.333 -352 -67c-16.667 -13.333 -25 -29.333 -25 -48c0 -6 -2.16699 -11.333 -6.5 -16s-9.5 -7 -15.5 -7c-6.66699 0 -12.167 2.33301 -16.5 7s-6.5 10 -6.5 16c0 32 13.333 59.667 40 83
c64 52 192.667 78 386 78l30 315c0.666992 7.33301 3.66699 13.333 9 18s11.333 7 18 7h3c16.667 -2.66699 25 -12 25 -28l-29 -312c122 -3.33301 230.333 -10.166 325 -20.499s148.667 -16.833 162 -19.5s20 -9.66699 20 -21c0 -8.66699 -3.33301 -15.334 -10 -20.001
c-4 -2.66699 -8.33301 -4 -13 -4h-3c-152.667 22.667 -314.334 35.667 -485.001 39l-51 -530c-0.666992 -7.33301 -3.66699 -13.333 -9 -18s-11.333 -7 -18 -7z" />
    <glyph glyph-name="comma" unicode="," horiz-adv-x="300" 
d="M37 140c-6 0 -11.333 2.33301 -16 7s-7 10 -7 16s2.33301 11.333 7 16s10 7 16 7c24 0 44 6 60 18s28.5 25.667 37.5 41s15.333 29 19 41s5.5 18.333 5.5 19c1.33301 6.66699 4.33301 11.5 9 14.5s9 4.5 13 4.5l5 -1c12.667 -2.66699 19 -10 19 -22
c0 -14 -8.66699 -37 -26 -69c-32.667 -61.333 -80 -92 -142 -92z" />
    <glyph glyph-name="hyphen" unicode="-" horiz-adv-x="672" 
d="M94 684c-62.667 0 -93.999 21.666 -93.999 64.999c0 6.66699 2.16699 12.167 6.5 16.5s9.83301 6.5 16.5 6.5c6 0 11.333 -2.16699 16 -6.5s7 -9.83301 7 -16.5c0 -3.33301 0.333008 -5.66602 1 -6.99902c4 -8 19.667 -12 47 -12c38 0 98.333 9.33301 181 28
s143 28 181 28c30.667 0 54 -6.66699 70 -20c4.66699 -4.66699 7 -10 7 -16c0 -6.66699 -2.16699 -12.167 -6.5 -16.5s-9.83301 -6.5 -16.5 -6.5c-6 0 -11.333 2 -16 6c-7.33301 5.33301 -20 8 -38 8c-30.667 0 -88.334 -9 -173.001 -27c-90 -20 -153 -30 -189 -30z" />
    <glyph glyph-name="hyphen" unicode="&#xad;" horiz-adv-x="672" 
d="M94 684c-62.667 0 -93.999 21.666 -93.999 64.999c0 6.66699 2.16699 12.167 6.5 16.5s9.83301 6.5 16.5 6.5c6 0 11.333 -2.16699 16 -6.5s7 -9.83301 7 -16.5c0 -3.33301 0.333008 -5.66602 1 -6.99902c4 -8 19.667 -12 47 -12c38 0 98.333 9.33301 181 28
s143 28 181 28c30.667 0 54 -6.66699 70 -20c4.66699 -4.66699 7 -10 7 -16c0 -6.66699 -2.16699 -12.167 -6.5 -16.5s-9.83301 -6.5 -16.5 -6.5c-6 0 -11.333 2 -16 6c-7.33301 5.33301 -20 8 -38 8c-30.667 0 -88.334 -9 -173.001 -27c-90 -20 -153 -30 -189 -30z" />
    <glyph glyph-name="period" unicode="." horiz-adv-x="191" 
d="M52 219c-31.333 0 -47 16.333 -47 49c0 30.667 14.667 46 44 46c20.667 0 34.667 -8 42 -24c4 -8.66699 6 -17 6 -25c0 -30.667 -15 -46 -45 -46z" />
    <glyph glyph-name="slash" unicode="/" horiz-adv-x="629" 
d="M51 133c-2 0 -3.66699 0.331055 -5 0.998047c-12 2.66699 -18 10 -18 22c0 4.66699 16.333 70 49 196c30 118.667 68.667 255.667 116 411c56.667 181.333 105.334 317 146.001 407c66 144.667 122.667 217 170 217h4c6 0 11.167 -2.16699 15.5 -6.5
s6.5 -10.166 6.5 -17.499c0 -5.33301 -1.83301 -10.166 -5.5 -14.499s-8.33398 -6.5 -14.001 -6.5s-13.334 -3.5 -23.001 -10.5s-22.167 -21.167 -37.5 -42.5s-33.5 -53.5 -54.5 -96.5s-45.167 -100.5 -72.5 -172.5s-58 -162 -92 -270
c-46.667 -154.667 -85.167 -291.334 -115.5 -410.001s-46.166 -181.167 -47.499 -187.5s-4 -11.166 -8 -14.499s-8.66699 -5 -14 -5z" />
    <glyph glyph-name="zero" unicode="0" horiz-adv-x="1126" 
d="M495 62c-171.333 0 -298.998 50.335 -382.998 151.002c-48 61.333 -79.667 129.666 -95 204.999c-11.333 59.333 -17 116.333 -17 171c0 14.667 1 42.667 3 84c8 129.333 43.667 255.333 107 378c44 85.333 104.167 162 180.5 230s170.166 117.667 281.499 149
c27.333 8 57.666 12 90.999 12c63.333 0 119.666 -20 168.999 -60c92 -80.667 150.667 -203.334 176 -368.001c8 -52.667 12 -84 12 -94v-2c0.666992 -2 1 -22.667 1 -62c0 -116 -15 -232.333 -45 -349c-75.333 -277.333 -224.666 -425 -447.999 -443
c-11.333 -1.33301 -22.333 -2 -33 -2zM494.002 89.002c26.667 0 55.667 3 87 9c44.667 15.333 90 47.333 136 96c106.667 114 160 322.667 160 626c-1.33301 139.333 -11.833 250.833 -31.5 334.5s-45.667 145.834 -78 186.501s-68.166 65.334 -107.499 74.001
c-20.667 0 -47.667 -3.66699 -81 -11c-107.333 -30.667 -197.833 -78.834 -271.5 -144.501s-131.834 -139.834 -174.501 -222.501s-71.334 -164.667 -86.001 -246c-13.333 -61.333 -20 -128.333 -20 -201c0 -52.667 6.16699 -111.167 18.5 -175.5s41.5 -125.833 87.5 -184.5
c78.667 -94 197.334 -141 356.001 -141h5z" />
    <glyph glyph-name="one" unicode="1" horiz-adv-x="639" 
d="M312 59c-34 0 -55.6641 0.999023 -64.9971 2.99902h-354c-8.66699 0 -13 4.66699 -13 14c0 4 1.33301 7.16699 4 9.5s90.667 3.5 264 3.5l280 1305c-200.667 -165.333 -302.667 -248 -306 -248c-4.66699 0 -8.16699 1.33301 -10.5 4s-3.5 5.66699 -3.5 9
c0 4.66699 38.667 38.667 116 102c147.333 120.667 221.666 181 222.999 181c10 6.66699 23 10 39 10c12 0 22.333 -2.33301 31 -7s13 -10.667 13 -18l-279 -1338c14.667 -2 32.334 -3 53.001 -3c10 0 27 0.333008 51 1s51.667 6 83 16s51.666 27 60.999 51
c2.66699 6 7 9 13 9c1.33301 0 3.16602 -0.5 5.49902 -1.5s4.16602 -2.5 5.49902 -4.5s2 -4 2 -6l-1 -6c-8.66699 -24 -25 -42.167 -49 -54.5s-51 -20.666 -81 -24.999s-57.333 -6.5 -82 -6.5z" />
    <glyph glyph-name="two" unicode="2" horiz-adv-x="924" 
d="M233 62l-102.997 0.000976562l-50 3c-18.667 2.66699 -31.334 11.334 -38.001 26.001c-2.66699 6 -4 12 -4 18c0 8.66699 3 17.667 9 27c92 122.667 239 349 441 679c111.333 184 167 332 167 444c0 10.667 -1.83301 30.834 -5.5 60.501s-16.834 58.5 -39.501 86.5l-2 1
l-11 1l-38 1c-88 0 -165.667 -17.667 -233 -53s-122.666 -79.833 -165.999 -133.5s-74.666 -101.667 -93.999 -144s-29.166 -65.333 -29.499 -69s-1.83301 -6.16699 -4.5 -7.5s-5 -2 -7 -2l-4 1c-6.66699 2 -10 6.33301 -10 13c0 4.66699 10.167 29.5 30.5 74.5
s53.166 95.667 98.499 152s105.666 104.166 180.999 143.499c65.333 34 143.666 51 234.999 51c32 0 60 -1.66699 84 -5c92 -12.667 138 -69.334 138 -170.001c0 -154 -109.333 -401.667 -328 -743c-96 -150 -194.667 -292.667 -296 -428l165 2
c106.667 1.33301 203.667 7.33301 291 18c90 10.667 146 24 168 40c6 4.66699 9 8 9 10c1.33301 8 5.66602 12 12.999 12c9.33301 0 14 -5 14 -15c-0.666992 -10 -8 -20 -22 -30c-34 -24.667 -127 -42.334 -279 -53.001c-98.667 -7.33301 -192 -11 -280 -11z" />
    <glyph glyph-name="three" unicode="3" horiz-adv-x="694" 
d="M74 62c-4.66699 0 -8.16504 1.16602 -10.498 3.49902s-3.83301 5.16602 -4.5 8.49902c0 8.66699 4 13.667 12 15c17.333 0 59 7.33301 125 22s126 33 180 55c22 24 40.667 52.667 56 86c17.333 38 26 75.667 26 113c0 68 -23 120 -69 156
c-25.333 13.333 -54 24.666 -86 33.999c-62.667 17.333 -124.334 26 -185.001 26c-28.667 0 -43.667 -0.333008 -45 -1c-9.33301 0 -14 4.66699 -14 14c0 4.66699 2 8.33398 6 11.001l48 34c123.333 87.333 229.666 180.333 318.999 279c34.667 62.667 52 126 52 190
c0 50.667 -15 94 -45 130s-65.167 63.333 -105.5 82s-81.166 29.334 -122.499 32.001c-103.333 -38.667 -201.666 -103.667 -294.999 -195c-28 -27.333 -43 -42.166 -45 -44.499s-5.33301 -3.5 -10 -3.5c-8 0 -12 4 -12 12c0 3.33301 1.16699 6.66602 3.5 9.99902
s17.666 19 45.999 47s66 59.5 113 94.5s99.5 65.5 157.5 91.5c60 25.333 116 38 168 38c73.333 0 139 -25 197 -75c42.667 -36.667 64.667 -81 66 -133c0 -102 -71.333 -223 -214 -363c-90.667 -86.667 -180.667 -161 -270 -223c55.333 0 120.333 -9 195 -27
c124 -36 203 -102 237 -198c6.66699 -18.667 10 -37 10 -55c0 -88 -79 -158.333 -237 -211c-70.667 -23.333 -140.334 -39.666 -209.001 -48.999z" />
    <glyph glyph-name="four" unicode="4" horiz-adv-x="912" 
d="M590 87l-43.9971 3h-3l-1 1h-2c-6 3.33301 -9 8.33301 -9 15l95 583c-180.667 -23.333 -321.334 -35 -422.001 -35c-115.333 0 -178.333 16 -189 48c-1.33301 6 -2 13 -2 21c0 73.333 67.333 227.333 202 462c92 162 141.667 243.667 149 245
c4 0 7.33301 -0.666992 10 -2l23 -3c16 -2.66699 27.333 -10.667 34 -24c2.66699 -6 4 -12 4 -18c0 -7.33301 -2 -15 -6 -23c-104.667 -170.667 -186 -330.667 -244 -480c-26 -66 -39 -120 -39 -162c0 -13.333 1.33301 -25.333 4 -36l58 -1c88 0 205 9 351 27
c24.667 2.66699 48.334 5.66699 71.001 9l66 401c29.333 179.333 44.666 270.666 45.999 273.999c1.33301 6.66699 5.66602 10 12.999 10c2.66699 0 4.33398 -0.333008 5.00098 -1h3c20 -4 35.333 -13.333 46 -28c8.66699 -12.667 13 -26.334 13 -41.001
c0 -6 -25.667 -205.667 -77 -599l83 13c10 0 15 -4.66699 15 -14c0 -7.33301 -3.66699 -11.666 -11 -12.999l-87 -14h-4l-102 -576c-2.66699 -13.333 -8.83398 -23.666 -18.501 -30.999s-19.834 -11 -30.501 -11z" />
    <glyph glyph-name="five" unicode="5" horiz-adv-x="880" 
d="M290 48c-39.333 0 -75.8311 9.16602 -109.498 27.499s-60.5 40.333 -80.5 66s-34.5 48.667 -43.5 69s-13.667 31.5 -14 33.5s-0.5 3.66699 -0.5 5c0 2.66699 0.833008 5.66699 2.5 9s5.5 5 11.5 5c6.66699 0 11 -3.33301 13 -10c0 -2.66699 4 -13 12 -31
s21.333 -38.667 40 -62c25.333 -34 56.666 -57.667 93.999 -71c58.667 4.66699 122.5 34 191.5 88s132.833 148 191.5 282c28.667 72 43 135.333 43 190c0 8.66699 -1.5 30 -4.5 64s-24.5 63.667 -64.5 89c-16 2.66699 -33.333 4 -52 4c-116.667 0 -251 -26 -403 -78
c-56.667 -19.333 -88 -30.333 -94 -33c0 -1.33301 -1.33301 -2 -4 -2c-9.33301 0 -14 4.66699 -14 14l107 616c2 6.66699 6 10.334 12 11.001l654 68c7.33301 0 11.666 -4 12.999 -12c0 -8.66699 -4 -13.667 -12 -15l-573 -59l-91 -561c154.667 52 287.667 78 399 78
c94 0 157 -24.333 189 -73c24.667 -41.333 37 -90.333 37 -147c0 -58 -13 -123.667 -39 -197c-33.333 -89.333 -78.333 -165.333 -135 -228c-84.667 -93.333 -176.667 -140 -276 -140z" />
    <glyph glyph-name="six" unicode="6" horiz-adv-x="880" 
d="M370 96c-44.667 0 -87.333 8.66797 -128 26.001c-102.667 45.333 -175.334 136.666 -218.001 273.999c-13.333 47.333 -20 95.333 -20 144c0 122 40.333 257.667 121 407c81.333 151.333 180 291.666 296 420.999c36.667 41.333 57.334 62 62.001 62
c4 0 7.33301 -1.33301 10 -4c0.666992 0 1 -0.333008 1 -1v-1l27 -19c14 -11.333 21 -25 21 -41c0 -12 -4.66699 -23.333 -14 -34c-43.333 -45.333 -100.666 -115.5 -171.999 -210.5s-132.333 -201.167 -183 -318.5c89.333 42.667 174 64 254 64
c9.33301 0 38.166 -1.66699 86.499 -5s103.166 -34 164.499 -92c72.667 -71.333 109 -157 109 -257c0 -51.333 -11.667 -102.666 -35 -153.999c-46 -97.333 -116 -170 -210 -218c-57.333 -28.667 -114.666 -43 -171.999 -43zM455.001 135.001
c25.333 6 50.334 15.334 75.001 28.001c88 45.333 154 113.666 198 204.999c21.333 46.667 32 94 32 142c0 20 -4 52.167 -12 96.5s-37.333 91.5 -88 141.5c-66.667 60.667 -144.334 91 -233.001 91c-78.667 0 -166.667 -24.333 -264 -73l-5 -3
c-29.333 -78 -44 -155.333 -44 -232c0 -18 0.666992 -36 2 -54c16 -118 56.667 -205.667 122 -263c61.333 -52.667 128.333 -79 201 -79h16z" />
    <glyph glyph-name="seven" unicode="7" horiz-adv-x="874" 
d="M142 48c-0.666992 0 -0.998047 0.332031 -0.998047 0.999023h-1v-1l-34 11c-14.667 4.66699 -25.334 14 -32.001 28c-3.33301 7.33301 -5 14.666 -5 21.999c0 6.66699 76.333 208 229 604c-42 -2.66699 -79 -6.16699 -111 -10.5s-52.667 -11.166 -62 -20.499
c-2.66699 -3.33301 -6 -5 -10 -5c-3.33301 0 -6.33301 1.33301 -9 4s-4 6.33398 -4 11.001c0 2.66699 1 5.33398 3 8.00098c24 23.333 92 36.666 204 39.999l249 644c-381.333 -56 -588.333 -88.333 -621 -97c-2 -0.666992 -4.33301 -1 -7 -1c-8 0 -12 4 -12 12
c0 6.66699 2.66699 11 8 13c14.667 7.33301 226.667 41 636 101l124 18c8.66699 0 13 -4.33301 13 -13c0 -2 -89.333 -225.333 -268 -670c137.333 8 232.666 25.667 285.999 53c2 0.666992 4.33301 1 7 1c8.66699 0 13 -4.33301 13 -13c0 -5.33301 -2.33301 -9.33301 -7 -12
c-58.667 -30 -162 -49 -310 -57l-266 -662c-2.66699 -6 -6.66699 -9 -12 -9z" />
    <glyph glyph-name="eight" unicode="8" horiz-adv-x="781" 
d="M337 19c-36.667 0 -72.333 5.66602 -107 16.999c-92.667 24.667 -158 90.667 -196 198c-14 45.333 -21 89.666 -21 132.999c0 19.333 3 48.833 9 88.5s22.333 85.167 49 136.5s56 96.333 88 135c56.667 66 96.667 107.333 120 124c-52 46 -95.667 91.333 -131 136
c-40.667 50.667 -61 99.334 -61 146.001c0 85.333 29.167 159.5 87.5 222.5s127.166 102.5 206.499 118.5c18 3.33301 35.667 5 53 5c56.667 0 108 -17 154 -51c50 -39.333 80.333 -88.333 91 -147c4.66699 -24.667 7 -50 7 -76c0 -35.333 -5.83301 -78.666 -17.5 -129.999
s-30 -106 -55 -164s-48.5 -106 -70.5 -144l-2 -4c36.667 -46.667 70.334 -108.334 101.001 -185.001c34 -85.333 51 -168.666 51 -249.999c0 -94 -40 -171.333 -120 -232c-74 -51.333 -152.667 -77 -236 -77zM522.001 783.999c59.333 108 100.665 212.332 123.998 312.999
c8.66699 38 13 74.667 13 110c0 22 -3.16699 51.667 -9.5 89s-32.166 74 -77.499 110c-41.333 30 -87.666 45 -138.999 45c-55.333 0 -109.333 -16.333 -162 -49c-58.667 -57.333 -88 -122.666 -88 -195.999c0 -40 10.333 -73.667 31 -101c46 -52.667 99.667 -109 161 -169z
M341 46.998c74.667 0 146.668 23.6641 216.001 70.9971c37.333 28 65.333 61 84 99c17.333 34.667 26 71.334 26 110.001c0 16.667 -1.66699 33.334 -5 50.001c-19.333 95.333 -79 191.333 -179 288c-47.333 -70.667 -76 -106 -86 -106c-3.33301 0 -6.33301 1.33301 -9 4
s-4 6.33398 -4 11.001c0 2.66699 1 5.33398 3 8.00098c15.333 15.333 40.666 49.666 75.999 102.999l-164 148c-8 -6 -23 -19.667 -45 -41c-88 -85.333 -151.333 -181 -190 -287c-16 -42.667 -24 -87 -24 -133c0 -41.333 6.66699 -84.333 20 -129
c20 -56.667 46.833 -99 80.5 -127s66.167 -46.333 97.5 -55c34.667 -9.33301 69 -14 103 -14z" />
    <glyph glyph-name="nine" unicode="9" horiz-adv-x="831" 
d="M276 96c-20 0 -42.3301 1.33301 -66.9971 4c-28 5.33301 -42 21.333 -42 48c0 12 4.66699 23.333 14 34c51.333 49.333 114 120.833 188 214.5s138.667 199.5 194 317.5c-83.333 -35.333 -160.333 -53 -231 -53c-97.333 0 -182.333 34 -255 102
c-69.333 70.667 -104 155 -104 253c0 51.333 11.333 102.666 34 153.999c35.333 74 84.666 134 147.999 180c73.333 53.333 151.666 80 234.999 80c76 0 144.667 -24.667 206 -74s107.666 -124.666 138.999 -225.999c13.333 -47.333 20 -95.333 20 -144
c0 -53.333 -11.667 -120.666 -35 -201.999s-64 -170.5 -122 -267.5s-115.333 -180.833 -172 -251.5s-97.667 -119.334 -123 -146.001l-18 -19c-2.66699 -2.66699 -5.66699 -4 -9 -4zM332.003 688c70.667 0 148.332 18.999 232.999 56.999l13 6c37.333 93.333 56 178 56 254
c0 46.667 -9.33301 95.5 -28 146.5s-49.167 98.833 -91.5 143.5s-85.833 80.667 -130.5 108l-19 -1c-70.667 -6 -135.667 -30.667 -195 -74s-105.666 -99.666 -138.999 -168.999c-20.667 -46.667 -31 -94 -31 -142c0 -19.333 3.66699 -50.833 11 -94.5
s35.666 -90.5 84.999 -140.5c66.667 -62.667 145.334 -94 236.001 -94z" />
    <glyph glyph-name="colon" unicode=":" horiz-adv-x="229" 
d="M77 461c-20 0 -33.667 7.66602 -41 22.999c-4 8.66699 -6 17.334 -6 26.001c0 30.667 15 46 45 46c20 0 33.667 -8 41 -24c4 -8.66699 6 -17 6 -25c0 -30.667 -15 -46 -45 -46zM77 696.999c-20 0 -33.667 7.99902 -41 23.999c-4 8.66699 -6 17.334 -6 26.001
c0 30.667 15 46 45 46c20 0 33.667 -8 41 -24c4 -8.66699 6 -17 6 -25c0 -31.333 -15 -47 -45 -47z" />
    <glyph glyph-name="semicolon" unicode=";" horiz-adv-x="240" 
d="M40 428c-12.667 0 -27.668 5.99902 -45.001 17.999c-6 5.33301 -9 11.333 -9 18c0 4.66699 1.66699 9 5 13c4.66699 6.66699 11 10 19 10c4.66699 0 9 -1.66699 13 -5c6.66699 -5.33301 12.334 -8 17.001 -8c13.333 0 25.333 19.333 36 58c8 30.667 13 63.334 15 98.001
c0.666992 6 3.16699 11 7.5 15s9.16602 6 14.499 6c16 0 24 -8 24 -24c-3.33301 -52 -12.666 -98.167 -27.999 -138.5s-38.333 -60.5 -69 -60.5zM114.999 721.999c-20 0 -33.667 7.99902 -41 23.999c-4 8.66699 -6 17.334 -6 26.001c0 30 15 45 45 45c20 0 33.667 -8 41 -24
c4 -8.66699 6 -17 6 -25c0 -30.667 -15 -46 -45 -46z" />
    <glyph glyph-name="less" unicode="&#x3c;" horiz-adv-x="1054" 
d="M902 186c-5.33301 0 -42.334 6.66602 -111.001 19.999c-202 38.667 -381 88.667 -537 150c-183.333 74 -275 153.333 -275 238c0 119.333 185 230.333 555 333c88 23.333 162.667 41.5 224 54.5s94 19.5 98 19.5c9.33301 0 14 -4.66699 14 -14
c0 -8 -3.66699 -12.667 -11 -14c-3.33301 0 -35.333 -6.33301 -96 -19c-94 -20 -188.333 -44 -283 -72c-89.333 -48.667 -169.666 -99 -240.999 -151c-80.667 -59.333 -121 -108.333 -121 -147c0 -50 37.333 -112.333 112 -187c11.333 -5.33301 23 -10.333 35 -15
c90.667 -35.333 184.667 -65.333 282 -90c154 -40 273.333 -66 358 -78c7.33301 -1.33301 11 -5.66602 11 -12.999c0 -10 -4.66699 -15 -14 -15z" />
    <glyph glyph-name="equal" unicode="=" horiz-adv-x="1136" 
d="M24 815c-6.66699 0 -12.168 2.16602 -16.501 6.49902s-6.5 9.83301 -6.5 16.5c0 32.667 13.667 60 41 82c46.667 34.667 119.667 54.334 219 59.001c28.667 1.33301 58 2 88 2c148.667 0 319.667 -16.667 513 -50c80.667 -14 126.834 -22.333 138.501 -25
s17.5 -10 17.5 -22l-1 -5c-2.66699 -12.667 -9.66699 -19 -21 -19l-5 1c-76 16 -177.333 32.333 -304 49s-248.667 25.334 -366 26.001c-118 0 -201.333 -17 -250 -51c-16 -12.667 -24 -28.334 -24 -47.001c0 -6.66699 -2.33301 -12.167 -7 -16.5s-10 -6.5 -16 -6.5z
M23.999 623.999c-6.66699 0 -12.168 2.16699 -16.501 6.5s-6.5 9.83301 -6.5 16.5c0 32.667 13.667 60 41 82c46.667 34.667 119.667 54.334 219 59.001c28.667 1.33301 58 2 88 2c148.667 0 319.667 -16.667 513 -50c80.667 -14 126.834 -22.333 138.501 -25
s17.5 -10 17.5 -22l-1 -5c-2.66699 -12.667 -9.66699 -19 -21 -19l-5 1c-76 16 -177.333 32.5 -304 49.5s-249 25.5 -367 25.5c-117.333 0 -200.333 -17 -249 -51c-16 -12.667 -24 -28.334 -24 -47.001c0 -6.66699 -2.33301 -12.167 -7 -16.5s-10 -6.5 -16 -6.5z" />
    <glyph glyph-name="greater" unicode="&#x3e;" horiz-adv-x="966" 
d="M-44 186c-10 0 -15.667 4.00293 -17 12.0029c0 9.33301 4 14.666 12 15.999l110 21c197.333 37.333 374 86.333 530 147c12 4.66699 23.333 9.66699 34 15c74.667 73.333 112 135.666 112 186.999c0 67.333 -120.333 166.666 -361 297.999c-92.667 28 -187 52 -283 72
c-60.667 12.667 -92.667 19 -96 19c-7.33301 1.33301 -11 6 -11 14c0 9.33301 4.33301 14 13 14c4.66699 0 37.667 -6.5 99 -19.5s136 -31.167 224 -54.5c370 -102.667 555 -213.667 555 -333c0 -84 -91.667 -163.333 -275 -238c-156 -61.333 -334.667 -111.333 -536 -150
c-69.333 -13.333 -106 -20 -110 -20z" />
    <glyph glyph-name="question" unicode="?" horiz-adv-x="716" 
d="M140 172l-0.999023 -0.00488281c-9.33301 0 -14 7 -14 21c0 42.667 11.333 84.667 34 126c35.333 62.667 97 134.334 185 215.001c56 50 99.333 97 130 141c42.667 83.333 64 159.333 64 228c0 8.66699 -1.5 33.5 -4.5 74.5s-24.5 85.667 -64.5 134
s-87 81.166 -141 98.499c-24 7.33301 -47 11 -69 11c-28.667 0 -56.334 -6 -83.001 -18c-38.667 -18.667 -67 -41.5 -85 -68.5s-32 -55.833 -42 -86.5c-15.333 -71.333 -23 -142.666 -23 -213.999c0 -48 0.666992 -74 2 -78c0 -9.33301 -4.33301 -14.666 -13 -15.999
c-10 0 -15 4.66699 -15 14c-1.33301 4 -2 31 -2 81c0 40.667 3.33301 88.334 10 143.001c30.667 221.333 115 332 253 332c64.667 0 125 -16.5 181 -49.5s99.333 -79.5 130 -139.5c24.667 -53.333 37 -107.666 37 -162.999c0 -104.667 -44 -213.667 -132 -327
c-23.333 -29.333 -50.333 -58.666 -81 -87.999c-56.667 -52.667 -99 -93.667 -127 -123c-76.667 -80 -115 -155.333 -115 -226v-7c0 -8.66699 -4.66699 -13.667 -14 -15zM122.001 33.9951c-20.667 0 -34.668 7.66797 -42.001 23.001c-4 8.66699 -6 17 -6 25
c0 31.333 15 47 45 47c20.667 0 34.334 -8 41.001 -24c4 -8.66699 6 -17.334 6 -26.001c0 -30 -14.667 -45 -44 -45z" />
    <glyph glyph-name="at" unicode="@" horiz-adv-x="1005" 
d="M378 204l-21.999 0.00195312c-235.333 0 -353 123 -353 369c0 50 8.5 108 25.5 174s48.667 134.167 95 204.5s97.5 129.833 153.5 178.5c121.333 104 237 156 347 156c85.333 0 151.333 -36 198 -108c53.333 -91.333 80 -183.666 80 -276.999
c0 -5.33301 -0.833008 -34 -2.5 -86s-20.5 -115 -56.5 -189c-62 -126 -141 -197.333 -237 -214c-8.66699 -1.33301 -17 -2 -25 -2c-12.667 0 -25 1.33301 -37 4c-27.333 4 -50.666 21 -69.999 51c-14.667 22.667 -22 57.667 -22 105c0 14.667 0.666992 30.667 2 48
c-5.33301 -4 -10.333 -8.33301 -15 -13c-43.333 -32 -79.666 -48 -108.999 -48c-8 0 -15.333 1.33301 -22 4c-27.333 9.33301 -41 33.666 -41 72.999c0 29.333 8.33301 66.666 25 111.999c26.667 74.667 61.667 112 105 112c29.333 0 61.666 -20.667 96.999 -62
c17.333 52.667 29.666 87.334 36.999 104.001c4 8.66699 9.33301 13 16 13c4.66699 0 9.33398 -2 14.001 -6c22.667 -4.66699 34 -18 34 -40c0 -6.66699 -3 -19.334 -9 -38.001c-34.667 -118.667 -52 -213.334 -52 -284.001c0 -44.667 10.667 -78 32 -100l14 -1
c7.33301 0 14.333 0.666992 21 2c84 14.667 154.333 79.667 211 195c37.333 76.667 56 163.334 56 260.001c0 87.333 -25 173.666 -75 258.999c-38.667 61.333 -95.334 92 -170.001 92c-101.333 0 -209.333 -49.333 -324 -148
c-53.333 -46.667 -102.166 -103.5 -146.499 -170.5s-76.833 -141.167 -97.5 -222.5c-12 -45.333 -18 -92.333 -18 -141c0 -38 3.66699 -76.667 11 -116c29.333 -144 132 -216 308 -216h21c79.333 4 157.166 16.833 233.499 38.5s140 43 191 64s77.667 32.333 80 34
s4.5 2.5 6.5 2.5c2.66699 0 5.5 -0.666992 8.5 -2s5.5 -3.5 7.5 -6.5s3 -5.83301 3 -8.5c0 -2 -0.833008 -5 -2.5 -9s-32.834 -18.667 -93.501 -44c-150 -62 -294.333 -96.333 -433 -103zM330.001 586.002c23.333 0 53.668 13.999 91.001 41.999
c13.333 10 26.666 21.667 39.999 35c5.33301 30.667 13 63.667 23 99c-8 10.667 -15.667 20.334 -23 29.001c-23.333 25.333 -45 38 -65 38h-1l-78 -241c4 -1.33301 8.33301 -2 13 -2z" />
    <glyph glyph-name="A" unicode="A" horiz-adv-x="1518" 
d="M1030 -62l-48.002 8c-16 2.66699 -28 10.334 -36 23.001c-6 8.66699 -9 18 -9 28c0 4.66699 0.666992 9.66699 2 15l8 29c22 72.667 50.167 161.167 84.5 265.5l104.5 327.5c-98 11.333 -191 26.666 -279 45.999c-36.667 8 -72.334 15 -107.001 21l-21 -46
c-92 -204.667 -172.5 -361.667 -241.5 -471s-147.167 -167 -234.5 -173c-143.333 0 -229.333 60.333 -258 181c-4 22.667 -6 45.667 -6 69c0 110 49.667 217.667 149 323c88.667 86.667 180.334 139 275.001 157c42 7.33301 85.667 11 131 11c58 0 119 -6 183 -18l6 -1
l67 141c66.667 142 132.334 255 197.001 339c62 76.667 113.667 124.334 155 143.001c31.333 14 55.333 21 72 21l13 -2c82.667 -22.667 124 -113.334 124 -272.001c-2.66699 -112.667 -31.667 -262 -87 -448h8c100 0 196.667 12.333 290 37h4
c2.66699 0 5.66699 -0.833008 9 -2.5s5 -5.16699 5 -10.5c0 -7.33301 -3.33301 -12.333 -10 -15c-97.333 -25.333 -198 -38 -302 -38h-12c-41.333 -139.333 -83.666 -273.333 -126.999 -402c-48.667 -146 -77 -235 -85 -267c-2.66699 -12.667 -10.667 -19 -24 -19z
M250.998 40c79.333 5.33301 152.168 61.166 218.501 167.499s144.166 259.5 233.499 459.5l18 39c-28.667 5.33301 -56.667 9.33301 -84 12c-118.667 -9.33301 -212 -42.166 -280 -98.499s-131 -132.5 -189 -228.5l-18 -34c-33.333 -62.667 -50 -126.667 -50 -192
c0 -36 9 -70.333 27 -103c26.667 -14.667 62 -22 106 -22h18zM1145 662l22.999 76.002c68 231.333 102 393.666 102 486.999c0 11.333 -0.333008 21.666 -1 30.999l-1 15c-3.33301 18.667 -10.333 33 -21 43c-16 13.333 -31 20 -45 20c-48.667 0 -109.667 -46.333 -183 -139
c-73.333 -96.667 -147.666 -228.334 -222.999 -395.001l-34 -72c32.667 -6 66 -12.667 100 -20c88.667 -19.333 182 -34.666 280 -45.999h3z" />
    <glyph glyph-name="B" unicode="B" horiz-adv-x="1115" 
d="M442 -28c-14 0 -28.3311 0.667969 -42.998 2.00098c-2 -1.33301 -4 -2 -6 -2l-39 7c-52.667 8 -99.334 22.667 -140.001 44c-104.667 40.667 -182.667 99.667 -234 177c-34.667 52.667 -52 111.667 -52 177c0 36.667 5.66699 75.667 17 117
c22.667 70.667 56.667 121.334 102 152.001c37.333 25.333 71.333 38 102 38c23.333 0 54 -9.33301 92 -28l40 132c24 75.333 46.833 152.666 68.5 231.999s44.167 179 67.5 299c4 20 9.5 34.333 16.5 43s15.333 13.834 25 15.501s20.5 2.5 32.5 2.5
c8.66699 0 17 -0.666992 25 -2c14.667 -3.33301 22 -14.666 22 -33.999l-1 -16c-16.667 -152 -48.667 -304 -96 -456c8 -3.33301 21 -5 39 -5c20 0 46.333 2 79 6c212.667 38.667 346.334 119 401.001 241c8.66699 23.333 13 45.666 13 66.999
c0 35.333 -11.333 68.166 -34 98.499s-49 45.5 -79 45.5c-37.333 0 -77.333 -18 -120 -54c-66.667 -56.667 -129 -130.667 -187 -222l-33 -51c-2.66699 -4.66699 -6.66699 -7 -12 -7c-2.66699 0 -5.5 0.833008 -8.5 2.5s-4.66699 3.66699 -5 6s-0.5 4.16602 -0.5 5.49902
c0 4 12.667 25.667 38 65c60 93.333 125.667 169.333 197 228c46 37.333 89.333 56 130 56c40 0 73.833 -18.333 101.5 -55s41.5 -75.667 41.5 -117c0 -25.333 -5 -51.333 -15 -78c-59.333 -132 -200.333 -218.333 -423 -259l-38 -5c41.333 -13.333 88 -32.333 140 -57
s101.5 -55.834 148.5 -93.501s84.167 -82.167 111.5 -133.5c63.333 30 132 74.333 206 133c3.33301 2 7 3 11 3c3.33301 -0.666992 6.16602 -2.5 8.49902 -5.5s3.5 -5.83301 3.5 -8.5c0 -4.66699 -1.66699 -8.66699 -5 -12c-76 -60 -146.667 -105.333 -212 -136
c13.333 -32.667 20 -67.667 20 -105c0 -30.667 -4.33301 -63 -13 -97c-26.667 -91.333 -69.334 -163.666 -128.001 -216.999c-101.333 -92.667 -226.333 -139 -375 -139zM661.002 491.001c52 0 108.999 9 170.999 27c-7.33301 60 -29.666 110.167 -66.999 150.5
s-80 72.5 -128 96.5s-91.667 41.5 -131 52.5s-64.666 17.167 -75.999 18.5l-27 -82l-50 -161c59.333 -37.333 127.666 -67 204.999 -89c32 -8.66699 66.333 -13 103 -13zM395.001 7.00098c33.333 0 72.832 6.16602 118.499 18.499s95 44.166 148 95.499
s100.5 128.333 142.5 231c19.333 50 29 95.333 29 136c-61.333 -17.333 -118.666 -26 -171.999 -26c-37.333 0 -84.166 7.5 -140.499 22.5s-114.833 41.5 -175.5 79.5l-1 -4c-2.66699 -12.667 -10.667 -19 -24 -19l-48 8c-16 2.66699 -28 10.334 -36 23.001
c-6 8.66699 -9 18 -9 28c0 6.66699 2 16 6 28c-35.333 18 -63.333 27 -84 27c-24.667 0 -55.167 -12 -91.5 -36s-64.833 -68.333 -85.5 -133c-10.667 -38 -16 -74.333 -16 -109c0 -59.333 15.667 -113.333 47 -162c46 -63.333 103.333 -110.666 172 -141.999
c93.333 -44 166.666 -66 219.999 -66z" />
    <glyph glyph-name="C" unicode="C" horiz-adv-x="1317" 
d="M601 -22l-2.99609 0.000976562c-75.333 0 -141.333 21.667 -198 65c-60 48 -100 114 -120 198c-33.333 -5.33301 -65 -8 -95 -8c-109.333 0 -182.666 36.667 -219.999 110c-9.33301 19.333 -14 43.333 -14 72c0 25.333 3.66699 54 11 86
c1.33301 7.33301 5.33301 11 12 11c10.667 0 16 -4.33301 16 -13l-1 -5c-6.66699 -26.667 -10 -51 -10 -73c0 -58.667 23.667 -102 71 -130c35.333 -19.333 79.333 -29 132 -29c28 0 58.667 2.66699 92 8c-5.33301 32 -8 65.333 -8 100c0 104.667 23.667 223.667 71 357
c58 156 123.333 277.333 196 364c124.667 148.667 259 230 403 244c18.667 4 47 6 85 6c85.333 0 142.333 -24.333 171 -73c12 -26 18 -55.333 18 -88c0 -38.667 -11.833 -92.334 -35.5 -161.001s-62.834 -145.834 -117.501 -231.501s-105 -151.5 -151 -197.5
c-156 -152 -320 -256.667 -492 -314c11.333 -168.667 83.333 -253 216 -253c2 0 17.667 0.333008 47 1s68.333 9.33398 117 26.001c34.667 15.333 69.667 34.666 105 57.999c44.667 31.333 97.667 78.5 159 141.5s118.166 134 170.499 213s88.166 158.167 107.499 237.5
c2.66699 8 7 12 13 12c10 0 15 -5 15 -15v-3c-18.667 -79.333 -53.834 -159 -105.501 -239s-108.834 -152.667 -171.501 -218s-120.667 -116.666 -174 -153.999c-109.333 -70 -213.333 -105 -312 -105zM414.004 307.001c166.667 58 324 159 472 303
c43.333 43.333 91.5 106.166 144.5 188.499s94.833 166.166 125.5 251.499c18 48 27 90.667 27 128c0 28.667 -5.33301 54.334 -16 77.001c-16.667 27.333 -43 44.333 -79 51l-6 -1c-1.33301 0 -9.5 1.16699 -24.5 3.5s-34.833 3.5 -59.5 3.5
c-92 -19.333 -173.5 -64.666 -244.5 -135.999s-131.5 -158.5 -181.5 -261.5s-88.833 -210.833 -116.5 -323.5s-41.5 -205.667 -41.5 -279v-5z" />
    <glyph glyph-name="D" unicode="D" horiz-adv-x="1382" 
d="M438 22c-56 0 -109.669 6.66797 -161.002 20.001c-41.333 12 -65.333 21.333 -72 28c-1.33301 0 -13.666 7 -36.999 21c-68.667 41.333 -124.334 95.333 -167.001 162c-33.333 50 -50 105.333 -50 166c0 44.667 11 93 33 145c47.333 103.333 151.333 173 312 209
c51.333 170 94.333 344 129 522c7.33301 35.333 21.333 55 42 59c9.33301 1.33301 20 2 32 2c9.33301 0 18 -0.666992 26 -2c14 -2.66699 21 -14 21 -34l-1 -15c-18 -168 -54.333 -338 -109 -510c61.333 6 123.666 9 186.999 9c134 0 285.333 -12.333 454 -37
c25.333 94.667 38 175.334 38 242.001c0 134 -44.667 221 -134 261c-36 16 -74.333 24 -115 24c-24.667 0 -50 -3 -76 -9c-45.333 -12.667 -95.666 -40 -150.999 -82c-45.333 -38.667 -76.666 -83.667 -93.999 -135c-2 -6.66699 -6.33301 -10 -13 -10
c-2 0 -4.16699 0.5 -6.5 1.5s-4.33301 2.83301 -6 5.5s-2.5 5 -2.5 7l1 5c18.667 56.667 53 106 103 148c44.667 35.333 87.834 60.666 129.501 75.999s68.834 24 81.501 26c20.667 3.33301 40.334 5 59.001 5c105.333 0 195 -50.333 269 -151
c53.333 -80.667 80 -171 80 -271c0 -52.667 -7.33301 -108 -22 -166c111.333 -21.333 175 -34.333 191 -39c7.33301 -2.66699 11 -7.33398 11 -14.001v-3c-2.66699 -7.33301 -7.33398 -11 -14.001 -11h-3c-8.66699 3.33301 -73 16 -193 38
c-25.333 -84.667 -66 -170.667 -122 -258c-78.667 -118 -157.334 -208.667 -236.001 -272c-135.333 -108.667 -273.333 -163 -414 -163zM385.998 52.001c96 12.667 189.333 52.832 280 120.499s171 149.834 241 246.501s121.333 195 154 295l8 24
c-166.667 24 -318.667 36 -456 36c-64 0 -126 -3 -186 -9l-70 -226c-3.33301 -10.667 -9.16602 -18.667 -17.499 -24s-16.833 -8 -25.5 -8h-6c-25.333 4 -44 15.333 -56 34c-7.33301 12 -11 24.333 -11 37c0 7.33301 1 14.666 3 21.999l42 141
c-141.333 -34 -233.333 -96.667 -276 -188c-20.667 -50.667 -31 -97 -31 -139c0 -73.333 27.333 -139.333 82 -198c34.667 -38.667 68.167 -68 100.5 -88s51.166 -31 56.499 -33h1c3.33301 -3.33301 25.333 -11.666 66 -24.999c29.333 -8 63 -14 101 -18z" />
    <glyph glyph-name="E" unicode="E" horiz-adv-x="885" 
d="M272 -14c-52 0 -97.001 12.666 -135.001 37.999c-71.333 49.333 -107 121.666 -107 216.999c0 65.333 17.667 136 53 212c58.667 116 124.334 198.833 197.001 248.5s136.667 79.834 192 90.501c-88 32.667 -147.333 96.667 -178 192c-8 25.333 -12 52 -12 80
c0 30 7 68.833 21 116.5s57.333 96.5 130 146.5c90 55.333 174 83 252 83c50.667 0 99 -11.667 145 -35c73.333 -44 110 -100.333 110 -169c0 -60 -17.333 -107.667 -52 -143c-32 -30 -72.333 -45 -121 -45h-3c-8.66699 0 -13 4.66699 -13 14s4.66699 14 14 14h3
c40 0 73.333 12.667 100 38c29.333 29.333 44 70 44 122c0 26.667 -7.33301 51.667 -22 75c-34.667 40.667 -77 61 -127 61c-4.66699 0 -22.334 -1 -53.001 -3s-74.5 -19.5 -131.5 -52.5s-104.833 -71.167 -143.5 -114.5c-53.333 -64.667 -80 -129.334 -80 -194.001
c0 -25.333 4 -50.666 12 -75.999c49.333 -62 114.666 -94.667 195.999 -98h5c9.33301 0 14 -4.66699 14 -14s-5.33301 -14 -16 -14h-9c-86 0 -177.333 -36 -274 -108c-85.333 -123.333 -128 -239.333 -128 -348c0 -54 10.667 -106 32 -156c36 -78.667 86.667 -118 152 -118
c53.333 0 116.333 26.333 189 79c52.667 45.333 126.667 135 222 269c98 138.667 147 233 147 283c0 10 4.66699 15 14 15s14 -5 14 -15c0 -55.333 -48.667 -152.666 -146 -291.999c-64 -91.333 -116.333 -160 -157 -206c-61.333 -68.667 -122.166 -118 -182.499 -148
s-116.166 -45 -167.499 -45z" />
    <glyph glyph-name="F" unicode="F" horiz-adv-x="1016" 
d="M265 -14c-8 0 -15.9961 1.66602 -23.9961 4.99902h-1c-80.667 15.333 -146.667 55.333 -198 120c-49.333 62 -74 135.333 -74 220c0 7.33301 1.33301 36.333 4 87s47.334 118.667 134.001 204c80 74.667 166.667 112 260 112l30 -1c67.333 230.667 117.333 424 150 580v3
c0 9.33301 -4.33301 14 -13 14l-4 -1c-105.333 -33.333 -191 -99 -257 -197c-6 -9.33301 -11.667 -14 -17 -14c-8.66699 0 -13 4 -13 12c0 12 4 19 12 21c80.667 116.667 187.667 188.667 321 216c7.33301 1.33301 13.333 2 18 2l25 5c24.667 3.33301 50 5 76 5
c57.333 0 117.666 -7.5 180.999 -22.5s119.333 -26.167 168 -33.5c62.667 -10 120.667 -15 174 -15c61.333 0 106.666 8 135.999 24l21 17c2.66699 4.66699 6.66699 7 12 7c8 0 12 -4 12 -12c0 -16 -18.333 -30.667 -55 -44c-31.333 -12 -73 -18 -125 -18
c-92 0 -208 16.667 -348 50c-60.667 14 -118.334 21 -173.001 21c-8.66699 0 -16 -3 -22 -9s-9 -13 -9 -21c-14.667 -134.667 -62.667 -340.334 -144 -617.001h1c36 -12.667 71.333 -26 106 -40c93.333 -40 165.333 -60 216 -60c18 0 42.167 3 72.5 9s66.5 30 108.5 72
c2.66699 3.33301 6 5 10 5s7.5 -1.5 10.5 -4.5s4.5 -6.16699 4.5 -9.5c0 -4 -1.33301 -7.33301 -4 -10c-47.333 -47.333 -95 -75.666 -143 -84.999c-19.333 -4 -39 -6 -59 -6c-54 0 -129.667 20.667 -227 62c-34 14 -68.667 27 -104 39l-102 -341
c-10 -31.333 -19.667 -64.666 -29 -99.999c-16.667 -60.667 -33.334 -115 -50.001 -163s-33.334 -75 -50.001 -81c-4.66699 -4.66699 -10.667 -7 -18 -7zM104.004 110.999c28.667 0 56.666 14.5 83.999 43.5s50.333 66.833 69 113.5c2 2 8.66699 24 20 66l22 71l89 300
l-23 1c-85.333 0 -165.333 -35 -240 -105c-85.333 -84 -128 -174.333 -128 -271c0 -77.333 22.333 -144.333 67 -201l13 -15h1c8.66699 -2 17.334 -3 26.001 -3z" />
    <glyph glyph-name="G" unicode="G" horiz-adv-x="1126" 
d="M365 -3c-77.333 0 -144.334 21.6689 -201.001 65.002c-89.333 71.333 -134 181.333 -134 330c0 104 23.667 222 71 354c14.667 41.333 30.667 81 48 119c-84.667 13.333 -172.334 33 -263.001 59c-7.33301 2.66699 -11 7 -11 13c0 2 0.5 4.16699 1.5 6.5
s2.83301 4.33301 5.5 6s5 2.5 7 2.5l5 -1c92 -26 181.333 -45.667 268 -59c152 312.667 359.667 469 623 469c50.667 0 97.334 -9.66699 140.001 -29c20.667 -10 32.667 -16.333 36 -19c18 -7.33301 36 -24 54 -50c12.667 -19.333 19 -41.333 19 -66
c0 -73.333 -59.667 -153 -179 -239c-2 -4 -22.667 -16.5 -62 -37.5s-100 -40.167 -182 -57.5c-57.333 -12 -126 -18 -206 -18c-34 0 -70 1 -108 3c-32 -77.333 -58 -157 -78 -239c-28 -114.667 -42 -209.667 -42 -285c0 -26 3.83301 -64.833 11.5 -116.5
s32.5 -92.834 74.5 -123.501c38.667 -28 82.334 -42 131.001 -42c4.66699 0 21.5 0.5 50.5 1.5s66.5 9.5 112.5 25.5c34.667 15.333 69.667 34.333 105 57l1 1c72.667 48 131.667 101.667 177 161c28.667 37.333 43 72.333 43 105c0 67.333 -69 110.333 -207 129h-2l-3 1.5
c-0.666992 0.333008 -1.5 0.666016 -2.5 0.999023s-1.83301 1.33301 -2.5 3s-1.33398 2.83398 -2.00098 3.50098v3l-1 2v2l1 1c0 1.33301 0.333008 2.33301 1 3s1.33398 1.5 2.00098 2.5s1.66699 2.16699 3 3.5c1.33301 0.666992 2.33301 1 3 1s1.33398 0.333008 2.00098 1
h3c78 0 166 15.333 264 46c70 21.333 134.667 56.666 194 105.999c2 2 4.66699 3 8 3c5.33301 0 9.16602 -1.33301 11.499 -4s3.5 -5.66699 3.5 -9c0 -5.33301 -1.66699 -9.33301 -5 -12c-100.667 -84 -226 -134.333 -376 -151c88.667 -27.333 133 -72.666 133 -135.999
c0 -14.667 -3.66699 -32.334 -11 -53.001c-12.667 -38.667 -38.334 -78 -77.001 -118c-43.333 -44 -91.666 -83.667 -144.999 -119l-1 -1c-108.667 -70 -212.667 -105 -312 -105zM398.999 874.002c82 0 156.833 7.33301 224.5 22s120.167 31.834 157.5 51.501
s56 30.5 56 32.5c112 82 168 154.333 168 217c0 27.333 -10 50.666 -30 69.999l-27 21l-24 13c-40.667 21.333 -90 32 -148 32c-104 -18 -195 -68.667 -273 -152s-142.667 -185 -194 -305c31.333 -1.33301 61.333 -2 90 -2z" />
    <glyph glyph-name="H" unicode="H" horiz-adv-x="1431" 
d="M1035 -18l-49.002 7.99707c-15.333 2.66699 -27.333 10.334 -36 23.001c-5.33301 8.66699 -8 18 -8 28c0 4.66699 0.666992 9.66699 2 15c2.66699 11.333 21.667 75.666 57 192.999l128 428c-75.333 -22 -151.666 -48.667 -228.999 -80l-251 -109
c-144 -324 -285.667 -489.667 -425 -497c-4 0 -7.33301 1.33301 -10 4s-4 6.66699 -4 12c0 8 4.33301 12 13 12c123.333 8.66699 252.333 159.334 387 452.001c-201.333 -93.333 -347.333 -140 -438 -140c-118.667 0 -178 73 -178 219c0 36.667 7 80.834 21 132.501
s38 106 72 163s67 104.833 99 143.5v1l4 3c2.66699 4 5.66699 7.66699 9 11c96.667 113.333 201 205 313 275c109.333 67.333 205.333 101 288 101h9c13.333 0 27.666 -5 42.999 -15c29.333 -20 44 -56.333 44 -109c0 -34 -6.66699 -74 -20 -120
c-66.667 -235.333 -136.667 -438.333 -210 -609l236 101c80 32.667 159 59.667 237 81c70.667 240.667 123.334 443 158.001 607c4 20 9.5 34.167 16.5 42.5s15.167 13.333 24.5 15s20 2.5 32 2.5c9.33301 0 18 -0.666992 26 -2s13.667 -5.16602 17 -11.499
s5 -14.833 5 -25.5l-1 -12c-20 -152 -65.333 -348 -136 -588c26 3.33301 51.667 5 77 5c34.667 0 68.334 -3.33301 101.001 -10c7.33301 -1.33301 11 -6 11 -14c0 -9.33301 -4.66699 -14 -14 -14h-3c-30.667 6 -62.667 9 -96 9c-27.333 0 -55.666 -2 -84.999 -6l-145 -480
c-40.667 -132.667 -63.334 -208 -68.001 -226c-2.66699 -12.667 -10.667 -19 -24 -19zM172.998 359.997c58.667 0 137.667 19.333 237 58c65.333 25.333 138 56 218 92c76.667 175.333 150.334 386.666 221.001 633.999c12 43.333 18 78.666 18 105.999
c0 48.667 -11 79.334 -33 92.001c-7.33301 2 -15.333 3 -24 3c-36.667 0 -82.834 -18.667 -138.501 -56s-117.167 -90.833 -184.5 -160.5s-131.333 -143.5 -192 -221.5c-134.667 -176 -202 -318 -202 -426c0 -10 2 -28.667 6 -56s22 -48.666 54 -63.999z" />
    <glyph glyph-name="I" unicode="I" horiz-adv-x="639" 
d="M295 -32h-3.99902c-68.667 20.667 -125.334 36 -170.001 46c-16.667 2.66699 -27 4.66699 -31 6c-53.333 10 -95 15 -125 15h-5c-3.33301 0 -6.33301 1.16699 -9 3.5s-4 6.16602 -4 11.499c0 7.33301 4 11.666 12 12.999l7 1c25.333 0 56.333 -3 93 -9
c-1.33301 4.66699 -2 9.33398 -2 14.001s0.666992 9.33398 2 14.001l58 194c152.667 498 251 853.333 295 1066l6 23c-62.667 1.33301 -115.5 3.66602 -158.5 6.99902s-67 5.33301 -72 6s-8.5 2.33398 -10.5 5.00098s-3 5.66699 -3 9c0 5.33301 1.33301 9.16602 4 11.499
s5.66699 3.5 9 3.5c0.666992 0 2 -0.166992 4 -0.5s26.5 -2.33301 73.5 -6s104.833 -6.16699 173.5 -7.5c8 6 24 9 48 9c20 0 32.667 -2.66699 38 -8c110.667 0.666992 200.667 14.334 270 41.001l6 1c2 0 4.16699 -0.5 6.5 -1.5s4.16602 -2.83301 5.49902 -5.5s2 -5 2 -7
c0 -6.66699 -2.66699 -11 -8 -13c-71.333 -28 -162.333 -42.667 -273 -44l-1 -14c-25.333 -204.667 -121.666 -570.667 -288.999 -1098c-37.333 -118 -60 -192.667 -68 -224c36 -8.66699 77.333 -20 124 -34c7.33301 -2.66699 11 -7 11 -13l-1 -5
c-3.33301 -6.66699 -8 -10 -14 -10z" />
    <glyph glyph-name="J" unicode="J" horiz-adv-x="1120" 
d="M325 -59l-19 -0.00195312c-59.333 0 -110 8.66699 -152 26l-2 -1c-1.33301 0 -12.666 3.66699 -33.999 11c-48.667 16.667 -89.667 39.667 -123 69c-26.667 22.667 -40 54.334 -40 95.001c0 55.333 27.833 112.666 83.5 171.999s146.5 116 272.5 170
c133.333 54 270 99.333 410 136c98.667 330 164.667 577.667 198 743c3.33301 18 8 31 14 39c-148.667 -13.333 -256.334 -44.666 -323.001 -93.999c-63.333 -52 -95.666 -113 -96.999 -183c0.666992 -43.333 10.667 -85 30 -125c32 -67.333 76.667 -129 134 -185
c19.333 -19.333 29.666 -29.333 30.999 -30c3.33301 -2.66699 5 -6.66699 5 -12c0 -2.66699 -1.33301 -5.5 -4 -8.5s-6 -4.5 -10 -4.5c-6 0 -28 19.667 -66 59c-95.333 98 -144.666 200.333 -147.999 307c0.666992 78 36.334 146.333 107.001 205
c60 42 135.667 70.333 227 85c96 15.333 199.667 23 311 23c35.333 0 56.333 -0.333008 63 -1c9.33301 -1.33301 14 -6.33301 14 -15c-1.33301 -9.33301 -6.33301 -14 -15 -14c-4.66699 1.33301 -27.667 2 -69 2c-24.667 0 -54 -0.666992 -88 -2
c3.33301 -5.33301 5 -13 5 -23l-1 -14c-16.667 -150 -74.334 -388.333 -173.001 -715c79.333 18.667 143.833 32.834 193.5 42.501l77 15c1.66699 0.333008 2.83398 0.5 3.50098 0.5c3.33301 0 6.5 -1.16699 9.5 -3.5s4.5 -6.16602 4.5 -11.499
c0 -7.33301 -3.66699 -11.666 -11 -12.999c-114.667 -22.667 -210 -43.334 -286 -62.001c-54.667 -183.333 -84 -279 -88 -287v-2h-1v-1c-16.667 -49.333 -35.834 -93.333 -57.501 -132s-51.834 -82.334 -90.501 -131.001l-31 -28v1c-10 -10 -23 -20 -39 -30
c-82.667 -46.667 -157.667 -71 -225 -73zM206 -9.00195c68.667 0 133 21.6689 193 65.002s112.333 101.166 157 173.499s78.667 139.166 102 200.499l41 116l12 41c-330 -87.333 -548.333 -186.333 -655 -297c-48 -50 -72 -100 -72 -150c0 -10 1 -20.333 3 -31
c8 -34 44 -64.667 108 -92l61 -23c17.333 -2 34 -3 50 -3z" />
    <glyph glyph-name="K" unicode="K" horiz-adv-x="972" 
d="M32 9l-51.001 8.00195c-16 3.33301 -28 11 -36 23c-5.33301 8.66699 -8 18.334 -8 29.001l1 14l58 194c150.667 486.667 249.334 843 296.001 1069c7.33301 36 21.333 55.333 42 58c9.33301 1.33301 20 2 32 2c9.33301 0 18 -0.666992 26 -2c14 -2.66699 21 -14 21 -34
l-1 -15c-15.333 -136 -66 -351 -152 -645c1.33301 -0.666992 2.33301 -1.66699 3 -3c29.333 2.66699 80.5 13.167 153.5 31.5s150.5 48.666 232.5 90.999s150.333 100.5 205 174.5c49.333 72 74 153 74 243c0 49.333 -7.33301 101.333 -22 156v3c0 10 5 15 15 15
c6 0 10.333 -3.66699 13 -11c15.333 -56.667 23 -110.667 23 -162c0 -96.667 -26.667 -183.334 -80 -260.001c-58 -78.667 -129.333 -140 -214 -184s-164.5 -75.167 -239.5 -93.5s-127.5 -28.833 -157.5 -31.5c1.33301 -53.333 14 -121 38 -203s62.333 -149.333 115 -202
c37.333 -34 79 -51 125 -51c49.333 0 105.666 30.667 168.999 92c54.667 52 106 113.167 154 183.5s83.333 136.166 106 197.499c2.66699 6 6.66699 9 12 9c2 0 4.5 -0.5 7.5 -1.5s5.16699 -2.83301 6.5 -5.5s2 -5 2 -7l-1 -5c-22 -59.333 -57.333 -125.666 -106 -198.999
s-102 -138 -160 -194c-67.333 -65.333 -130.666 -98 -189.999 -98c-53.333 0 -101.333 19 -144 57c-52 51.333 -90.333 114.833 -115 190.5s-39.667 142.167 -45 199.5l-118 -387c-44 -138.667 -66.667 -214.334 -68 -227.001c-4 -12.667 -11.333 -19 -22 -19z" />
    <glyph glyph-name="L" unicode="L" horiz-adv-x="814" 
d="M270 58c-26 0 -50.333 2.66797 -73 8.00098c-62 17.333 -107 40.666 -135 69.999c-44.667 46 -67 95.667 -67 149c0 29.333 5.66699 53 17 71c3.33301 4 7.33301 6 12 6c2.66699 0 5.66699 -1 9 -3s5 -5.66699 5 -11c0 -2 -0.666992 -4.66699 -2 -8
c-8.66699 -12.667 -13 -31 -13 -55c0 -18.667 4 -39 12 -61c14.667 -36.667 40 -67 76 -91l-1 8c0 4 0.666992 8.33301 2 13l19 66l31 102c142.667 464 237 807 283 1029c7.33301 35.333 21.333 55 42 59c9.33301 1.33301 20 2 32 2c8.66699 0 17 -0.666992 25 -2
c14.667 -3.33301 22 -15 22 -35l-1 -15c-16.667 -133.333 -53 -298.833 -109 -496.5s-110.667 -381.167 -164 -550.5l-61 -198c-3.33301 -14 -6 -22.333 -8 -25c15.333 -2 31.333 -3 48 -3c70 0 173.667 21.333 311 64c130.667 40.667 225.334 61 284.001 61
c32 0 61 -4.66699 87 -14c6 -3.33301 9 -7.66602 9 -12.999c0 -10 -5 -15 -15 -15l-4 1c-22.667 8 -48.334 12 -77.001 12c-57.333 0 -149.333 -19.667 -276 -59c-56 -16.667 -111.333 -31.834 -166 -45.501s-106 -20.5 -154 -20.5z" />
    <glyph glyph-name="M" unicode="M" horiz-adv-x="2101" 
d="M1022 -73c-44 0 -72.6709 10.3291 -86.0039 30.9961c-6 8.66699 -9 18 -9 28c0 4.66699 0.666992 9.33398 2 14.001l8 29l46 151c110.667 364.667 186.667 637 228 817v3l9 42v1h1c3.33301 20 5 40.667 5 62c0 18 -5.33301 30.667 -16 38
c-97.333 -75.333 -214.333 -209 -351 -401c-21.333 -30 -42 -61 -62 -93l-2 -3c-106 -171.333 -199.667 -350.333 -281 -537c-19.333 -65.333 -35 -116.333 -47 -153c-3.33301 -10 -9.66602 -17 -18.999 -21c-2.66699 -2 -5.66699 -3 -9 -3l-3 1h-3
c-5.33301 0 -10.666 1.33301 -15.999 4l-38 23c-16.667 8 -28.334 20 -35.001 36c-4 8.66699 -6 18 -6 28c0 7.33301 41.667 146.333 125 417c72 232 108 410.333 108 535c0 148 -46 222 -138 222l-17 -1c-66 -12.667 -128 -43 -186 -91
c-80 -68.667 -140.667 -156.667 -182 -264c-32.667 -86 -49 -173 -49 -261c0 -22.667 1 -45.334 3 -68.001c21.333 -177.333 104.333 -295.666 249 -354.999c6 -3.33301 9 -7.66602 9 -12.999c0 -2 -0.666992 -4.33301 -2 -7s-3.16602 -4.66699 -5.49902 -6s-4.5 -2 -6.5 -2
l-6 1c-154.667 68.667 -243.334 194.667 -266.001 378c-2.66699 24 -4 48 -4 72c0 92 19.5 188.333 58.5 289s100.167 186.667 183.5 258c84.667 69.333 175.667 104 273 104c53.333 0 95.666 -19.333 126.999 -58c40.667 -53.333 61 -135.333 61 -246
c0 -162 -38 -380 -114 -654c116.667 246.667 250.667 463.667 402 651c74.667 108.667 132.334 175.334 173.001 200.001l23 12c54.667 48 100 72 136 72c36.667 0 55.334 -28 56.001 -84c0 -16.667 -0.666992 -26 -2 -28c0 -24.667 -5.33301 -65.667 -16 -123
c-30 -161.333 -88.333 -381.333 -175 -660c102 182.667 226.667 391 374 625l13 -7l-12 8c0.666992 0.666992 1.5 1.66699 2.5 3s21.5 33.333 61.5 96l1 2c56.667 90 109.334 169.667 158.001 239s88 112.333 118 129c23.333 10.667 44 16 62 16
c48.667 0 73 -35.333 73 -106c0 -45.333 -8.33301 -99 -25 -161c-40 -200.667 -121.667 -493.667 -245 -879c-44 -137.333 -68.333 -216.333 -73 -237c-2.66699 -12.667 -9.66699 -19 -21 -19l-51 8c-16 3.33301 -28 11.333 -36 24c-5.33301 8.66699 -8 18 -8 28
c0 11.333 22.667 89.333 68 234c121.333 392 205 688 251 888l15 72c2 12.667 3 24.334 3 35.001v16c-0.666992 11.333 -5 17 -13 17c-19.333 0 -61.333 -42 -126 -126l-126 -192.5l-65 -101c-0.666992 -1 -1 -1.83301 -1 -2.5c-143.333 -224 -289.333 -470 -438 -738
c-44.667 -145.333 -68.667 -225.333 -72 -240c-1.33301 -6 -4.16602 -10.5 -8.49902 -13.5s-8.83301 -4.5 -13.5 -4.5z" />
    <glyph glyph-name="N" unicode="N" horiz-adv-x="1426" 
d="M409 -12l-2.99707 0.996094h-3c-4.66699 0 -22.667 9 -54 27c-28 13.333 -42 34.666 -42 63.999c0 8.66699 42 147.667 126 417c72 234.667 108 411.334 108 530.001c0 151.333 -46.333 227 -139 227l-17 -1c-66 -12.667 -127.667 -43 -185 -91
c-72 -61.333 -122.333 -133.333 -151 -216c-16 -45.333 -24 -90.333 -24 -135c0 -35.333 5.33301 -70.666 16 -105.999c40 -113.333 124 -175.666 252 -186.999c8.66699 0 13 -5 13 -15c-1.33301 -8.66699 -6.33301 -13 -15 -13c-140.667 12 -233 81 -277 207
c-12 39.333 -18 78.666 -18 117.999c0 141.333 62 264.333 186 369c84.667 69.333 175.667 104 273 104c53.333 0 95.666 -19.333 126.999 -58c40.667 -54 61 -133.667 61 -239c0 -166.667 -35 -375 -105 -625l-31 -118c157.333 306.667 297 555.334 419 746.001l13 -7
l-12 8c0 1.33301 1.33301 3.66602 4 6.99902c150 230.667 254.333 359.334 313 386.001c24 10.667 45 16 63 16c48 0 72 -35 72 -105c0 -39.333 -7.33301 -88.333 -22 -147c-29.333 -177.333 -68.833 -372 -118.5 -584s-92.834 -380 -129.501 -504l-4 -16
c-2.66699 -12.667 -10.667 -19 -24 -19l-48 8c-16 2.66699 -28 10.334 -36 23.001c-6 8.66699 -9 18 -9 28c0 4.66699 0.666992 9.66699 2 15c70.667 248.667 154 609.334 250 1082h-1l13 63c3.33301 14 5 28.667 5 44v16c-0.666992 11.333 -5.33398 17 -14.001 17
c-22 0 -70 -43 -144 -129c-38.667 -52 -86.667 -122 -144 -210l-6 -8c-148.667 -235.333 -310 -527 -484 -875c-10.667 -36.667 -20 -67 -28 -91c-4 -10 -10.333 -16.667 -19 -20c-2.66699 -2.66699 -5.66699 -4 -9 -4z" />
    <glyph glyph-name="O" unicode="O" horiz-adv-x="1077" 
d="M347 -50c-154.667 0 -259.668 45.335 -315.001 136.002c-28 50.667 -42 108 -42 172c0 3.33301 0.5 22.666 1.5 57.999s11.833 89 32.5 161c24.667 85.333 60 176.666 106 273.999c-2 13.333 -3 34.666 -3 63.999c0 183.333 73.667 330.333 221 441
c83.333 56.667 166 85 248 85c48 0 96 -10 144 -30c74.667 -33.333 135.334 -90.666 182.001 -171.999c69.333 -126.667 104 -262 104 -406c0 -27.333 -4.33301 -91.5 -13 -192.5s-65 -218.5 -169 -352.5l14 7l36 19c2 1.33301 4 2 6 2c10 0 15 -5 15 -15
c0 -5.33301 -2.33301 -9.33301 -7 -12c-31.333 -18 -66 -33.333 -104 -46l-57 -53c-116.667 -93.333 -250 -140 -400 -140zM416.999 -17.998c127.333 14 237.999 63.333 331.999 148c-18.667 -3.33301 -40 -5 -64 -5c-81.333 2 -153 24.333 -215 67
c-106 72.667 -191 173.667 -255 303c-32.667 64 -54.667 118.333 -66 163l-11 43l-15 -34v-1c-44 -105.333 -66 -198.333 -66 -279c0 -16.667 1.83301 -45 5.5 -85s25.834 -92.333 66.501 -157c72 -108.667 164 -163 276 -163h12zM682.998 153.002
c34.667 0 69.667 5.00391 105 15.0039c115.333 128 183.333 281.333 204 460c4 34.667 6 68.667 6 102c0 139.333 -33.667 270.666 -101 393.999c-44 76.667 -100 130.334 -168 161.001c-24.667 11.333 -42.334 17 -53.001 17c-59.333 0 -118.333 -13 -177 -39
s-110 -66.333 -154 -121s-73 -124.334 -87 -209.001v-4c-4 -26 -6 -53.333 -6 -82c0 -16 0.666992 -32.333 2 -49c8 -106.667 31.333 -206.334 70 -299.001s88.834 -169.834 150.501 -231.501s131.167 -99.834 208.5 -114.501z" />
    <glyph glyph-name="P" unicode="P" horiz-adv-x="1344" 
d="M106 16l-48.001 8c-16 2.66699 -28 10.334 -36 23.001c-6 8.66699 -9 18 -9 28c0 4.66699 0.666992 9.16699 2 13.5l58 194.5c152 496 250.333 851.333 295 1066c7.33301 35.333 21.333 55 42 59c9.33301 1.33301 20 2 32 2c9.33301 0 18 -0.666992 26 -2
c14 -2.66699 21 -14 21 -34l-1 -15c-21.333 -178.667 -98 -480.334 -230 -905.001c40.667 92.667 86.334 188.334 137.001 287.001c0.666992 22.667 1.33398 34.667 2.00098 36c1.33301 8 6 12 14 12c4 0 7 -0.666992 9 -2c154 289.333 305.667 470.666 455 543.999
c39.333 18 77.666 27 114.999 27c29.333 0 58.333 -5.66699 87 -17c25.333 -9.33301 48.666 -24.666 69.999 -45.999c88 -86.667 132 -182.334 132 -287.001c0 -17.333 -1.33301 -35.333 -4 -54c-29.333 -160.667 -131.333 -299.667 -306 -417
c-108.667 -67.333 -206.667 -101 -294 -101c-26.667 0 -52.667 3.33301 -78 10c-118.667 40 -184.667 119.333 -198 238c-95.333 -190 -175.666 -375 -240.999 -555c-14 -44 -23.333 -75.333 -28 -94c-2.66699 -12.667 -10.667 -19 -24 -19zM641.999 491
c45.333 0 99.6699 14.666 163.003 43.999c103.333 50.667 181.666 113.667 234.999 189c68.667 96.667 103 202 103 316c0 48 -8.83301 99.333 -26.5 154s-49.834 99 -96.501 133c-10 1.33301 -20.333 2 -31 2c-32.667 0 -66.667 -8 -102 -24
c-148.667 -73.333 -303 -264.333 -463 -573c0 -33.333 6 -67.666 18 -102.999c14 -32 35.333 -61.333 64 -88c35.333 -33.333 80.666 -50 135.999 -50z" />
    <glyph glyph-name="Q" unicode="Q" horiz-adv-x="1103" 
d="M676 -5l-3.00098 1.00098c-14 3.33301 -26.667 9.33301 -38 18l2 -5l-4 6c-21.333 16 -38.666 39 -51.999 69c-58 -29.333 -116 -44 -174 -44c-13.333 0 -26.333 0.666992 -39 2c-107.333 16.667 -191.333 72 -252 166c-65.333 100 -98 223.667 -98 371
c0 85.333 13 173.666 39 264.999c52.667 181.333 140 324.666 262 429.999c94.667 78.667 189.667 118 285 118c50.667 0 97.667 -10.333 141 -31c109.333 -56 183.333 -155.333 222 -298c18 -64.667 27 -132.667 27 -204c0 -85.333 -13 -175.666 -39 -270.999
c-40.667 -144 -106.334 -266 -197.001 -366c-47.333 -52 -97.666 -93.333 -150.999 -124v-1c16.667 -40 41 -64.667 73 -74c7.33301 -2.66699 11 -7 11 -13c0 -10 -5 -15 -15 -15zM606.999 131.001c46 28 89.001 64.334 129.001 109.001c58 74.667 97.333 142.667 118 204
c-34.667 -4.66699 -68.334 -21.334 -101.001 -50.001l-43 -44c-18.667 -20.667 -39 -50.667 -61 -90s-36 -82.333 -42 -129zM407 69.002c54.667 0 109.663 14 164.996 42c-9.33301 30.667 -14 65.667 -14 105c0 74 17 143.667 51 209c32.667 62 80 101.667 142 119
c22.667 5.33301 42.334 8 59.001 8c50.667 0 77 -22 79 -66v-1c15.333 36 28.333 73 39 111c25.333 92.667 38 180.334 38 263.001c0 67.333 -13.167 150.333 -39.5 249s-91.166 174.334 -194.499 227.001c-14.667 7.33301 -29.667 13 -45 17c-19.333 6 -33.666 9 -42.999 9
c-170.667 0 -324 -183 -460 -549c-40 -112.667 -60 -217.334 -60 -314.001c0 -90.667 13.333 -170.334 40 -239.001s62.334 -121 107.001 -157c40.667 -22 86 -33 136 -33z" />
    <glyph glyph-name="R" unicode="R" horiz-adv-x="1038" 
d="M100 21l-3 -0.00488281c-14.667 0 -27.334 4.83301 -38.001 14.5s-16 22.834 -16 39.501l1 30c11.333 232 87.333 505 228 819c12.667 27.333 25.667 42.666 39 45.999c5.33301 1.33301 10.666 2 15.999 2c9.33301 0 19.333 -1.66699 30 -5
c26.667 -3.33301 40 -13.666 40 -30.999c0 -11.333 -16.333 -62.333 -49 -153c-6.66699 -18.667 -13 -37.667 -19 -57c48 -20 101.333 -30 160 -30c56.667 0 116 9 178 27c62.667 30.667 113.667 76.667 153 138c26.667 40.667 40 92.667 40 156
c0 30.667 -3.33301 64.334 -10 101.001c-26.667 128.667 -96 206 -208 232c-32.667 7.33301 -66 11 -100 11c-17.333 0 -34.666 -1 -51.999 -3c-16 -5.33301 -32 -12 -48 -20c-23.333 -9.33301 -61.166 -34.166 -113.499 -74.499s-104.5 -93.666 -156.5 -159.999
s-89.333 -143.5 -112 -231.5c-8.66699 -34.667 -13 -70.334 -13 -107.001c0 -58 10.667 -119 32 -183v-3c0 -10.667 -4.66699 -16 -14 -16c-6 0 -10.333 3.33301 -13 10c-22.667 66.667 -34 130.334 -34 191.001c0 38.667 8.16699 90.167 24.5 154.5
s51.666 131.166 105.999 200.499s108.666 125 162.999 167s93.833 68 118.5 78c70.667 32 139.667 48 207 48c66.667 0 132 -15.333 196 -46c116 -61.333 174 -156.333 174 -285c0 -57.333 -14.833 -114.333 -44.5 -171s-77.5 -105.667 -143.5 -147
c-101.333 -64 -211 -96 -329 -96c-62 0 -119 10.667 -171 32c0 -2 -0.666992 -3.66699 -2 -5c22.667 -112 56.667 -218.333 102 -319c64 -143.333 142.333 -221.666 235 -234.999c49.333 3.33301 101 34.833 155 94.5s102.833 129.5 146.5 209.5s74.834 152 93.501 216
c2 6.66699 7 10 15 10h3c6.66699 -2 10 -7 10 -15v-3c-14 -48 -36 -102.333 -66 -163s-65 -119.667 -105 -177s-82 -105.166 -126 -143.499s-86.667 -57.5 -128 -57.5c-69.333 10.667 -127.666 47.5 -174.999 110.5s-85.5 134 -114.5 213s-50.167 148.167 -63.5 207.5
c-79.333 -229.333 -123 -421.333 -131 -576v-17c0 -14.667 -7.5 -22.667 -22.5 -24z" />
    <glyph glyph-name="S" unicode="S" horiz-adv-x="857" 
d="M231 37c-68.667 0 -128.664 18.6719 -179.997 56.0049c-27.333 17.333 -41 41.333 -41 72c0 21.333 10 48 30 80c46 76 162.667 156.667 350 242c-10 19.333 -22.333 40.666 -37 63.999c-23.333 26 -40.333 45.667 -51 59c-4.66699 7.33301 -9.66699 14.333 -15 21
c-16.667 24 -25 36.667 -25 38c-6.66699 10 -13.667 22.333 -21 37c-16.667 32.667 -31 70 -43 112c-6 21.333 -10.667 48 -14 80l-1 33c0 127.333 43.667 237.666 131 330.999c89.333 86.667 189.666 130 300.999 130c86 0 149.667 -21.667 191 -65
c2 -2 4.33301 -4.5 7 -7.5s5.16699 -6.33301 7.5 -10l7 -10.5c2.33301 -3.33301 4.16602 -6.66602 5.49902 -9.99902c7.33301 -14.667 11 -23.334 11 -26.001c6 -15.333 10.333 -38.333 13 -69v-7c0 -62.667 -11.667 -124.667 -35 -186c-8.66699 -22 -14 -34 -16 -36
c-2 -5.33301 -5.66699 -8 -11 -8c-2.66699 0 -5.5 0.666992 -8.5 2s-5 3.16602 -6 5.49902s-1.5 4.16602 -1.5 5.49902c0 2 0.5 3.83301 1.5 5.5s5.5 12.834 13.5 33.501s15.667 46.167 23 76.5s11 61.166 11 92.499v11c0 21.333 -3.33301 42.333 -10 63
c-22 30 -55.333 45 -100 45c-52.667 0 -120.667 -20.667 -204 -62c-86.667 -43.333 -151.334 -93.666 -194.001 -150.999c-52 -68.667 -78 -145 -78 -229c0 -44.667 7.33301 -88.334 22 -131.001l6 -12c1.33301 -4.66699 7 -14.334 17 -29.001c2 -1.33301 3 -3 3 -5
c4.66699 -9.33301 15 -24.333 31 -45c18 -24.667 43.333 -53.334 76 -86.001c14 -13.333 27 -26.666 39 -39.999c110 46.667 253.333 94.667 430 144l5 1c8.66699 0 13 -5.33301 13 -16c0 -5.33301 -3.66699 -9.33301 -11 -12c-166.667 -46.667 -306 -93.667 -418 -141
c52.667 -70 79 -135.667 79 -197c0 -50 -17.333 -97.333 -52 -142c-28 -33.333 -64.5 -59.5 -109.5 -78.5s-92.167 -28.5 -141.5 -28.5zM203.003 76.0049c42 0 87 10.833 135 32.5s77.667 77.5 89 167.5c2 17.333 3 34 3 50c0 51.333 -9 96 -27 134
c-123.333 -56 -213.666 -108.667 -270.999 -158c-62.667 -53.333 -94 -99 -94 -137c0 -32 28.667 -58.667 86 -80c27.333 -6 53.666 -9 78.999 -9z" />
    <glyph glyph-name="T" unicode="T" horiz-adv-x="841" 
d="M288 16l-48.9951 8.00098c-15.333 2.66699 -27.333 10.334 -36 23.001c-5.33301 8.66699 -8 17.667 -8 27c0 10 20 79.667 60 209c152 496 250.333 851.333 295 1066v1h-35c-237.333 0 -388 -52 -452 -156c-22 -38.667 -33 -79 -33 -121c0 -36 4.66699 -70.5 14 -103.5
s19 -60.167 29 -81.5s15.667 -33 17 -35s2 -4.33301 2 -7c0 -0.666992 -0.333008 -2.16699 -1 -4.5s-2.33398 -4.5 -5.00098 -6.5s-5.33398 -3 -8.00098 -3c-4.66699 0 -8.5 2 -11.5 6s-9.83301 17.667 -20.5 41c-29.333 62 -44 124 -44 186
c0 7.33301 0.333008 23.166 1 47.499s12.667 56.5 36 96.5c69.333 113.333 228.333 170 477 170l42 -1c7.33301 15.333 16.5 24.5 27.5 27.5s23.833 4.5 38.5 4.5c12 0 22.667 -1.83301 32 -5.5s14.333 -14.167 15 -31.5c71.333 -2.66699 136.666 -4 195.999 -4
c120.667 0 222.667 5.66699 306 17c101.333 14 176.666 32.667 225.999 56c34.667 16.667 52 28 52 34c3.33301 4 7 6 11 6c3.33301 0 6.66602 -1.16699 9.99902 -3.5s5 -5.83301 5 -10.5c0 -3.33301 -0.5 -6 -1.5 -8s-7.5 -8 -19.5 -18
c-35.333 -28.667 -103.666 -52.834 -204.999 -72.501s-228.666 -29.5 -381.999 -29.5c-60.667 0 -127.667 1.66699 -201 5c-18.667 -136 -57.834 -308 -117.501 -516s-116.5 -397.333 -170.5 -568c-40.667 -132.667 -63.334 -208 -68.001 -226
c-2.66699 -12.667 -10.667 -19 -24 -19z" />
    <glyph glyph-name="U" unicode="U" horiz-adv-x="1715" 
d="M1416 141l-46.4951 1.99707c-15.667 0.666992 -28.5 6.66699 -38.5 18c-8 9.33301 -12 23 -12 41c13.333 101.333 53.666 294 120.999 578l60 262c-34 -83.333 -76.333 -174.333 -127 -273c-120 -234 -246 -403.333 -378 -508c-78 -62.667 -157.333 -94 -238 -94h-15
l-2 1l22 -4c-124 0 -215 42 -273 126c-44.667 69.333 -67 154 -67 254c0 170.667 34.333 354 103 550c-36 -43.333 -82.333 -94.333 -139 -153c-144 -147.333 -262.333 -225 -355 -233c-40.667 0 -72.334 12 -95.001 36c-2.66699 2.66699 -4 6 -4 10s1.5 7.33301 4.5 10
s6.5 4 10.5 4c3.33301 0 6.66602 -1.33301 9.99902 -4c17.333 -18.667 39.666 -28 66.999 -28c46.667 0 102.667 24.333 168 73c101.333 74.667 203.666 174.334 306.999 299.001c36 42.667 55.333 65.834 58 69.501s6 5.5 10 5.5c2 0 3.66699 -0.333008 5 -1l76 2
c14 -0.666992 24.667 -6 32 -16c4.66699 -6.66699 7 -13.667 7 -21c0 -4 -0.666992 -8.33301 -2 -13c-66.667 -190.667 -112 -372 -136 -544c-6 -42.667 -9 -82.334 -9 -119.001c0 -117.333 34 -203.666 102 -258.999c33.333 -10.667 72.666 -16 117.999 -16
c165.333 8 329.666 148 492.999 420c112.667 188 207.334 387.333 284.001 598l11 53c4 20 9.33301 34.167 16 42.5s14.834 13.333 24.501 15s20.5 2.5 32.5 2.5c9.33301 0 17.833 -0.666992 25.5 -2s13.334 -5.16602 17.001 -11.499s5.5 -14.833 5.5 -25.5l-1 -12
c-10.667 -93.333 -28.667 -198.833 -54 -316.5l-80 -354.5c-41.333 -170 -72 -311.667 -92 -425l-2 -18c-0.666992 -6 -3.33398 -11 -8.00098 -15s-10 -6 -16 -6z" />
    <glyph glyph-name="V" unicode="V" horiz-adv-x="1240" 
d="M829 -1l-4 0.00195312c-133.333 0 -271.333 250.333 -414 751v3c-63.333 251.333 -139 381.333 -227 390h-2c-36.667 0 -72.334 -16.667 -107.001 -50s-65.834 -72.833 -93.501 -118.5s-49.667 -86.167 -66 -121.5s-25 -54.666 -26 -57.999s-2.66699 -5.5 -5 -6.5
s-4.5 -1.5 -6.5 -1.5c-10 0 -15 4.66699 -15 14c0 3.33301 10 27 30 71c17.333 37.333 41 79.666 71 126.999c71.333 114.667 143.666 172 216.999 172c104.667 0 190.667 -138 258 -414c76.667 -264.667 145.334 -449.334 206.001 -554.001c38 -61.333 70.667 -92 98 -92
c18.667 0 33.667 13 45 39c33.333 108 73.333 252.667 120 434l107 402c68 246 113.333 369.667 136 371c10.667 0 22.334 -3.66699 35.001 -11c29.333 -12 44 -28.667 44 -50c0 -10 -2 -22.333 -6 -37l-134 -502c-66 -256.667 -123.333 -468 -172 -634
c0 -2.66699 -0.333008 -4.33398 -1 -5.00098c-15.333 -79.333 -44.666 -119 -87.999 -119z" />
    <glyph glyph-name="W" unicode="W" horiz-adv-x="1628" 
d="M192 40c-17.333 0 -33.333 3.66406 -48 10.9971c0 0.666992 -0.333008 1 -1 1c-27.333 14.667 -46 38 -56 70c-6.66699 22 -10 38.333 -10 49l1 10c-0.666992 2 -1 4.33301 -1 7c-20 146 -38.667 331.667 -56 557c-14 180.667 -29.667 346 -47 496l-1 17
c0 20 4.5 34.5 13.5 43.5s22.167 15.5 39.5 19.5c10 4 19 6 27 6c3.33301 0 8.33301 -0.666992 15 -2s12.667 -14.333 18 -39c18.667 -92 34 -197.667 46 -317c12.667 -129.333 26 -286.666 40 -471.999l5 -59c3.33301 -34 8.66602 -73 15.999 -117
c18.667 -111.333 44.667 -167 78 -167c32 0 108 132 228 396l80 176l24 58l2 3l63 151l63 148c2.66699 5.33301 6.66699 8.33301 12 9l16 3c17.333 2.66699 35 4 53 4c15.333 0 27 -2.33301 35 -7c3.33301 -6 5 -27.667 5 -65c0 -22.667 -0.666992 -51.667 -2 -87
c-1.33301 -50 -2 -105.333 -2 -166v-110.5c0 -53.667 4.66699 -120.167 14 -199.5c19.333 -173.333 67 -260 143 -260l12 1c6.66699 5.33301 13 11.333 19 18c56 61.333 103.667 146.333 143 255c66 180.667 115.667 398.667 149 654v1c4.66699 56 9.5 101.833 14.5 137.5
s7.83301 54.167 8.5 55.5v1c1.33301 8 6 12 14 12s12.667 -4 14 -12v-6c-1.33301 -25.333 -8.66602 -89.333 -21.999 -192v-1c-4.66699 -59.333 -7 -113.666 -7 -162.999c0 -190 32.667 -305.333 98 -346c14 -8 30 -12 48 -12c38.667 0 86 19.333 142 58
c2.66699 1.33301 5.33398 2 8.00098 2c9.33301 0 14 -4.33301 14 -13c0 -5.33301 -2 -9.66602 -6 -12.999c-60.667 -42 -113.334 -63 -158.001 -63c-22.667 0 -43.334 5.33301 -62.001 16c-70 43.333 -107.333 150.333 -112 321c-60 -344 -148.333 -581.333 -265 -712
c-48.667 -48.667 -95.667 -73 -141 -73c-23.333 0 -45 7.33301 -65 22c-37.333 28.667 -65.666 77.667 -84.999 147c-32 112.667 -48 261.667 -48 447c0 95.333 2 178 6 248l-29 -70l-63 -147c0 -2 -6.66699 -18 -20 -48l-112 -253c-52 -125.333 -101.833 -229 -149.5 -311
s-100.5 -124.667 -158.5 -128z" />
    <glyph glyph-name="X" unicode="X" horiz-adv-x="1142" 
d="M818 80l-3.99707 0.00195312c-11.333 0 -18 2.33301 -20 7c-32.667 136 -72.334 328.333 -119.001 577c-190.667 -204.667 -358.334 -343.667 -503.001 -417c-92 -46 -164.667 -69 -218 -69c-3.33301 0 -5.66602 0.333008 -6.99902 1c-4 0 -7.16699 1.5 -9.5 4.5
s-3.5 6.5 -3.5 10.5c0.666992 4 2.33398 7.16699 5.00098 9.5s7 3.5 13 3.5c43.333 0 105.666 19 186.999 57c153.333 72.667 330 217.667 530 435l-116 591c-2.66699 11.333 -4 21.333 -4 30c0 25.333 16 43.666 48 54.999c10.667 5.33301 20.667 8 30 8
c2 0 6.16699 -0.333008 12.5 -1s13.166 -12.667 20.499 -36c40 -140 80 -313.667 120 -521c150.667 165.333 285.667 304.666 405 417.999c128 120.667 194.333 181 199 181c5.33301 0 9.33301 -1.5 12 -4.5s4 -6.5 4 -10.5c-0.666992 -4 -2.33398 -7.33301 -5.00098 -10
c-8.66699 -6 -74 -66.833 -196 -182.5s-259.667 -258.167 -413 -427.5l38 -193c34 -186.667 64 -335 90 -445l5 -16l1 -8c0 -10 -5 -17.333 -15 -22l-43.5 -16.5c-15 -5.66699 -29.5 -8.5 -43.5 -8.5z" />
    <glyph glyph-name="Y" unicode="Y" horiz-adv-x="1383" 
d="M652 -52c-13.333 0 -26.0049 3 -38.0049 9c-42.667 22.667 -64 52.334 -64 89.001c0 76 98.667 179.333 296 310l66 42c62 174.667 124 389 186 643c0 0.666992 0.333008 1.33398 1 2.00098s13.667 55.667 39 165c-35.333 -87.333 -77.666 -178.333 -126.999 -273
c-118.667 -226.667 -232.334 -342.334 -341.001 -347.001c-15.333 0 -29.666 2.33301 -42.999 7c-89.333 32.667 -134 108.667 -134 228c0 56.667 7.66699 119.667 23 189l6 30l11 43v3l-11 -23c-106 -203.333 -219 -323 -339 -359c-17.333 -4.66699 -34.333 -7 -51 -7
c-41.333 0 -81.666 13 -120.999 39l-17 12c-3.33301 2.66699 -5 6.66699 -5 12c0 8.66699 4.66699 13 14 13c3.33301 0 6 -1 8 -3c8 -4.66699 13.333 -8.33398 16 -11.001c34.667 -22 69.667 -33 105 -33c14.667 0 29.334 1.66699 44.001 5c114 36 220.667 151.333 320 346
c13.333 24.667 26.666 50.667 39.999 78v1c16 33.333 31.333 68.333 46 105l7 18c0 0.666992 0.333008 1 1 1v1c2.66699 6.66699 7 10 13 10l5 -1c16 -4 31.5 -8.16699 46.5 -12.5s25.833 -12.833 32.5 -25.5c3.33301 -6.66699 5 -13.667 5 -21c0 -6 -1 -12 -3 -18
c-13.333 -36 -28 -83 -44 -141c-30 -106.667 -45 -196.334 -45 -269.001c0 -30 3.66699 -64 11 -102s30.333 -66.667 69 -86c90.667 10.667 188.667 113.667 294 309c76 142.667 139 284.667 189 426l14 36c2.66699 6.66699 7.33398 10 14.001 10l4 -1l70 7
c14.667 0 26.334 -4.66699 35.001 -14s13 -20 13 -32l-1 -8c-51.333 -288 -127 -571 -227 -849c88 49.333 162.5 89.333 223.5 120s92.833 46.5 95.5 47.5s4.66699 1.5 6 1.5c10 0 15 -4.33301 15 -13c0 -6.66699 -2.16699 -11 -6.5 -13s-38.5 -19 -102.5 -51
c-97.333 -48.667 -177.666 -92 -240.999 -130l-6 -3c-49.333 -126 -108.333 -237.167 -177 -333.5s-135 -152.166 -199 -167.499c-13.333 -7.33301 -27 -11 -41 -11zM651.995 -24c4 0 8.33301 0.666992 13 2c61.333 7.33301 138.333 133 231 377l-34 -22
c-189.333 -129.333 -284 -224.333 -284 -285c0 -27.333 16.333 -49 49 -65c8 -4.66699 16.333 -7 25 -7z" />
    <glyph glyph-name="Z" unicode="Z" horiz-adv-x="727" 
d="M142 30l-8.00293 0.00292969c-58 0 -93.333 52 -106 156l-1 12c0 47.333 25.667 93.666 77 138.999s135 95.666 251 150.999c2.66699 14.667 4 28 4 40c0 36.667 -14 60.667 -42 72c-28.667 -0.666992 -51.667 -3 -69 -7l-5 -1c-8 0 -14.333 4 -19 12
c-2 3.33301 -3 6.66602 -3 9.99902c0 4.66699 1.66699 9 5 13v1c42.667 42.667 100.334 109 173.001 199c42.667 59.333 82.667 121 120 185c55.333 96.667 83 172.667 83 228c0 29.333 -8.33301 53 -25 71c-25.333 22.667 -50.666 34 -75.999 34
c-42 0 -86.333 -25.667 -133 -77c-32 -35.333 -59 -71 -81 -107c-28 -64 -42 -101 -42 -111c-2.66699 -7.33301 -7 -11 -13 -11c-2 0 -4.33301 0.5 -7 1.5s-4.66699 3 -6 6s-2 5.83301 -2 8.5v1.5c0 0.333008 2 6.5 6 18.5c0 2 0.333008 3.66699 1 5
c6.66699 21.333 19.667 53.666 39 96.999c50.667 114 116 192.333 196 235c27.333 14.667 57 22 89 22c22 0 45 -3.33301 69 -10c55.333 -17.333 83 -55.666 83 -114.999c0 -79.333 -51.333 -191.333 -154 -336c-91.333 -128.667 -186.333 -245 -285 -349
c16.667 3.33301 34.334 5 53.001 5c12 0 29.167 -1.33301 51.5 -4s45.5 -15.334 69.5 -38.001c12.667 -13.333 22 -29.666 28 -48.999l309 131l5 1c10 0 15 -4.66699 15 -14c0 -6.66699 -3 -11 -9 -13l-314 -134c0.666992 -8 1 -16.333 1 -25c0 -28 -4.66699 -60 -14 -96
c-16 -56 -41 -111.333 -75 -166s-72.333 -100 -115 -136s-84 -54.667 -124 -56zM124.997 93.0029c17.333 0 41.001 18.333 71.001 55s73.667 122.667 131 258c7.33301 16.667 13.333 31.667 18 45c-100.667 -48.667 -175 -94 -223 -136c-44 -39.333 -66 -79 -66 -119
c0 -14 2.66699 -31.667 8 -53c19.333 -33.333 39.666 -50 60.999 -50z" />
    <glyph glyph-name="bracketleft" unicode="[" horiz-adv-x="442" 
d="M29 96c-9.33301 0 -13.9971 5.33203 -13.9971 15.999l87 1185c0 8.66699 4.66699 13 14 13h228c9.33301 0 14 -4.66699 14 -14c0 -10 -4.66699 -15 -14 -15h-163l-82 -1120c42.667 19.333 82 29 118 29c29.333 0 55 -8.66699 77 -26
c2.66699 -3.33301 4.33398 -6.66602 5.00098 -9.99902c0 -4 -1.33301 -7.5 -4 -10.5s-6.66699 -4.5 -12 -4.5c-2.66699 0 -5.33398 1 -8.00098 3c-16.667 12.667 -36.334 19 -59.001 19c-32.667 0 -70.334 -9.66699 -113.001 -29c-19.333 -8 -35 -15.5 -47 -22.5
s-18.333 -10.5 -19 -10.5c-2.66699 -2 -5.33398 -3 -8.00098 -3z" />
    <glyph glyph-name="backslash" unicode="\" horiz-adv-x="568" 
d="M497 58c-5.33301 0 -10 1.66699 -14 5s-6.66699 8.16602 -8 14.499s-17.166 68.833 -47.499 187.5s-69.166 255.334 -116.499 410.001c-33.333 108 -63.666 198 -90.999 270s-51.5 129.5 -72.5 172.5s-39.167 75.167 -54.5 96.5s-27.833 35.5 -37.5 42.5
s-17.334 10.5 -23.001 10.5s-10.334 2.16699 -14.001 6.5s-5.5 9.16602 -5.5 14.499c0 8 2.16699 14 6.5 18s9.16602 6 14.499 6h5c18 0 40.667 -13.667 68 -41c64 -65.333 146.667 -259.666 248 -582.999c47.333 -155.333 86.333 -292.333 117 -411
c32 -126 48 -191.333 48 -196c0 -4 -1.83301 -8.83301 -5.5 -14.5s-9.5 -8.5 -17.5 -8.5z" />
    <glyph glyph-name="bracketright" unicode="]" horiz-adv-x="388" 
d="M324 96c-2.66699 0 -4.66699 0.5 -6 1.5s-8 5.16699 -20 12.5c-41.333 22.667 -86.333 39 -135 49c-8.66699 1.33301 -17 2 -25 2c-23.333 0 -43.333 -6.33301 -60 -19c-2 -2 -4.66699 -3 -8 -3h-4c-7.33301 0 -11 4.33301 -11 13c0 4.66699 1.66699 8.66699 5 12
c22 17.333 47.667 26 77 26c35.333 0 74.333 -9.66699 117 -29l-81 1120h-163c-9.33301 0 -14 5 -14 15c0 9.33301 4.66699 14 14 14h228c7.33301 0 12 -4.33301 14 -13l86 -1187c0 -9.33301 -4.66699 -14 -14 -14z" />
    <glyph glyph-name="asciicircum" unicode="^" horiz-adv-x="371" 
d="M276 1177c-9.33301 0 -14.6689 4.33203 -16.002 12.999l-2 24c-5.33301 42.667 -13.666 83.667 -24.999 123l-1 1l-174 -49c-1.33301 -2.66699 -2.33301 -5.66699 -3 -9c-14.667 -45.333 -22 -75.666 -22 -90.999c-1.33301 -8 -6 -12 -14 -12
c-9.33301 0 -14 4.66699 -14 14c0 17.333 7.33301 50 22 98c25.333 78.667 63.333 131 114 157c10 4.66699 19.667 7 29 7c50.667 0 86.334 -59 107.001 -177c8 -46 12 -74 12 -84s-4.33301 -15 -13 -15z" />
    <glyph glyph-name="underscore" unicode="_" horiz-adv-x="951" 
d="M20 12c-2 0 -3.66895 0.333984 -5.00195 1.00098c-12 3.33301 -18 10.666 -18 21.999l1 6c18 81.333 147 122 387 122c94.667 0 196.334 -5.66699 305.001 -17c74.667 -8 114.834 -12.5 120.501 -13.5s10.167 -3.66699 13.5 -8s5 -8.83301 5 -13.5
c0 -16 -7.66699 -24 -23 -24h-3c-142.667 20.667 -278.334 31 -407.001 31c-76 0 -150.667 -5.16699 -224 -15.5s-116.666 -34.5 -129.999 -72.5c-2.66699 -12 -10 -18 -22 -18z" />
    <glyph glyph-name="grave" unicode="`" horiz-adv-x="181" 
d="M121 1201c-2.66699 0 -5.66797 1.66602 -9.00098 4.99902c-63.333 94 -95 142.667 -95 146c0 4 1.5 7.5 4.5 10.5s6.16699 4.5 9.5 4.5s6.33301 -1.66699 9 -5c64 -95.333 96 -144 96 -146c0 -3.33301 -1.66699 -6.66602 -5 -9.99902s-6.66602 -5 -9.99902 -5z" />
    <glyph glyph-name="a" unicode="a" horiz-adv-x="592" 
d="M85 388l-24.9961 2c-39.333 4 -70.666 25 -93.999 63c-20 29.333 -30 70 -30 122c0 14.667 0.666992 30.334 2 47.001c8 79.333 29.333 146 64 200c50 79.333 106.333 119 169 119c50 0 90.333 -24 121 -72c14 -22.667 23.667 -41.334 29 -56.001l80 194
c2.66699 2 6 3 10 3c5.33301 -0.666992 12.666 -4 21.999 -10c42 -24.667 63 -50.667 63 -78l-55 -146c-37.333 -102.667 -56 -167 -56 -193c0 -17.333 4.66699 -31 14 -41c4.66699 -4.66699 11 -7.33398 19 -8.00098c22 3.33301 52.5 31 91.5 83s75.833 106.333 110.5 163
s56 94.334 64 113.001c0 0.666992 0.333008 1 1 1c3.33301 -8.66699 5.66602 -17.667 6.99902 -27c-7.33301 -18.667 -28.833 -57.167 -64.5 -115.5s-74.334 -114.5 -116.001 -168.5s-75.5 -83 -101.5 -87l-16 1c-41.333 4 -72.333 27.333 -93 70c-14 28 -21 59.333 -21 94
l1 17c-28.667 -62 -61.834 -123.833 -99.501 -185.5s-69.834 -96.5 -96.501 -104.5zM95.0039 427c17.333 5.33301 41.499 33.667 72.499 85s60.667 105.5 89 162.5s46.833 98.167 55.5 123.5c-25.333 49.333 -53 74 -83 74c-50 0 -98.333 -56.667 -145 -170
c-20.667 -58 -31 -117.667 -31 -179c0 -20 2.33301 -41 7 -63s16.334 -33 35.001 -33z" />
    <glyph glyph-name="b" unicode="b" horiz-adv-x="574" 
d="M-32 297c-11.333 0 -21.3311 1.66504 -29.998 4.99805c-47.333 15.333 -71 35.333 -71 60v8.5c0 4.33301 8.66699 36.166 26 95.499l6 17l226 708l54 165l2 2c1.33301 1.33301 4.66602 2.33301 9.99902 3l8 -1c9.33301 -2 18.666 -5 27.999 -9
c21.333 -9.33301 36 -17.666 44 -24.999c10 -9.33301 15.667 -18.666 17 -27.999l1 -13l-42 -124l-73 -224l11 3c13.333 4 31.333 6 54 6l7 -1c35.333 0 73.666 -15.333 114.999 -46l10 -10c6.66699 -6.66699 14.334 -17.667 23.001 -33c16 -30.667 24 -69 24 -115l-1 -34
c52.667 26.667 98.667 54.667 138 84s70 54.333 92 75l33 31l17 -14l-34 -33c-66.667 -64.667 -149.667 -120.667 -249 -168c-4 -30.667 -12 -65 -24 -103c-50 -144 -116.333 -223.333 -199 -238c-14 -2.66699 -26.667 -4 -38 -4c-36.667 0 -66 14.333 -88 43
c-10 14 -15 44.667 -15 92c0 24.667 1.33301 51.667 4 81c-16 -49.333 -26.333 -82.666 -31 -99.999l-4 -13l-1 -1c-1.33301 -6 -3 -11.333 -5 -16l-21 -67l-15 -54l-2 -2c-2 -2 -4.33301 -3 -7 -3zM136.002 633.998c49.333 0 96.666 6.33301 141.999 19
c14 49.333 21 97.333 21 144c0 84.667 -33.667 127 -101 127c-13.333 0 -22.666 -0.666992 -27.999 -2l-57 -181l-18 -57l-6 -48c16 -1.33301 31.667 -2 47 -2zM119.002 393.998c18 0 35.3301 10.001 51.9971 30.001s31.834 43.667 45.501 71s24.834 52.166 33.501 74.499
s13.834 36.5 15.501 42.5l5.5 19c-54.667 -14.667 -113.667 -22 -177 -22h-8c-6 -54 -9 -99 -9 -135c0 -30 3 -50 9 -60c8.66699 -13.333 19.667 -20 33 -20z" />
    <glyph glyph-name="c" unicode="c" horiz-adv-x="453" 
d="M144 346l-11 0.000976562c-66.667 0 -117 28 -151 84c-20.667 34 -31 77 -31 129c0 39.333 6 84 18 134c17.333 62 38.5 110.333 63.5 145s47.5 59 67.5 73l30 20c42 17.333 77.333 26 106 26c2 0 10.833 -0.166992 26.5 -0.5s31.5 -5.16602 47.5 -14.499
s26.333 -17 31 -23l2 -4c4.66699 -4 7 -9.66699 7 -17c0 -6.66699 -1.66699 -10 -5 -10l-4 1c-12.667 10.667 -27.667 16 -45 16c-80.667 0 -147.334 -84.667 -200.001 -254c-11.333 -34.667 -20.333 -76.334 -27 -125.001c-1.33301 -12 -2 -23 -2 -33
c0 -68.667 29 -103 87 -103h5.5c1.66699 0 3.16699 0.333008 4.5 1c28.667 5.33301 67 29.5 115 72.5s95.833 100.167 143.5 171.5s86.167 151.666 115.5 240.999c0 1.33301 0.666992 2 2 2c1.33301 -0.666992 3.66602 -3 6.99902 -7l4 -7
c-5.33301 -48.667 -30.166 -111.667 -74.499 -189s-96.166 -148.333 -155.499 -213s-113.333 -102.667 -162 -114c-5.33301 -1.33301 -10.333 -2 -15 -2z" />
    <glyph glyph-name="d" unicode="d" horiz-adv-x="633" 
d="M108 351l-12.001 0.000976562c-39.333 0 -72.666 17.667 -99.999 53c-29.333 35.333 -44 90.666 -44 165.999c0 80 14.167 148.333 42.5 205s61.5 95.334 99.5 116.001l19 11c19.333 6 37 9 53 9c16.667 0 35.167 -4.5 55.5 -13.5s38.833 -23.667 55.5 -44
s28.667 -38.166 36 -53.499l78.5 254.5l76.5 242.5l32 103l1 1l1 1c0.666992 0.666992 1.66699 1.33398 3 2.00098h6l4 1c10.667 0 28.334 -6.66699 53.001 -20c16.667 -8 28.334 -18 35.001 -30c4 -6.66699 6 -13.334 6 -20.001v-6l-36 -110l-82 -258
c-76 -245.333 -115.667 -396.666 -119 -453.999c0 -22 6.33301 -38.667 19 -50c5.33301 -4 12 -6 20 -6c34 7.33301 73.833 44.666 119.5 111.999s86.5 136.666 122.5 207.999s57 117 63 137c0 0.666992 0.333008 1 1 1l8 -14l3 -11
c-4.66699 -15.333 -18.334 -47 -41.001 -95c-61.333 -132 -122.333 -234.667 -183 -308c-38 -46 -73.667 -69 -107 -69c-46.667 0 -82.334 21 -107.001 63c-19.333 32 -29 69.333 -29 112c-22 -56.667 -45.333 -108.334 -70 -155.001c-29.333 -54 -57 -81 -83 -81z
M126.999 391.001c28 11.333 70.667 91.332 128 239.999c32 85.333 48 131 48 137c1.33301 1.33301 2.66602 6 3.99902 14c-28 44 -56 66 -84 66c-53.333 0 -97.666 -61.333 -132.999 -184c-10 -40.667 -15 -85.667 -15 -135c0 -39.333 4 -72.166 12 -98.499
s21.333 -39.5 40 -39.5z" />
    <glyph glyph-name="e" unicode="e" horiz-adv-x="430" 
d="M98 345l-11.0039 -0.00488281c-66.667 0 -117 28 -151 84c-20.667 34 -31 77 -31 129c0 39.333 6 84 18 134c17.333 61.333 38.333 109.5 63 144.5s47.334 59.5 68.001 73.5l30 20c42 17.333 77.333 26 106 26c50 0 83.667 -12 101 -36l6 -6
c12.667 -12.667 19 -32.334 19 -59.001c0 -5.33301 -0.833008 -17.666 -2.5 -36.999s-23.167 -57.666 -64.5 -114.999c-33.333 -39.333 -70 -62.333 -110 -69c-23.333 -4 -43.666 -6 -60.999 -6c-12.667 0 -23.667 1 -33 3c-16 -54.667 -24 -102.334 -24 -143.001
c0 -31.333 7.33301 -56.666 22 -75.999c15.333 -15.333 37 -23 65 -23h5c24.667 0 66.667 25 126 75c51.333 44 102.833 102 154.5 174s91.834 152.667 120.501 242c0.666992 1.33301 1.66699 2 3 2c2 -1.33301 4.33301 -3.66602 7 -6.99902l4 -7
c-5.33301 -49.333 -31.166 -112.666 -77.499 -189.999s-100.833 -148.666 -163.5 -213.999s-120.667 -104.666 -174 -117.999zM102.996 655.995c13.333 0.666992 32.666 6.33398 57.999 17.001c42.667 17.333 77.667 54.666 105 111.999c12.667 26.667 19 50.667 19 72
c0 16 -4.33301 29.333 -13 40c-4 4.66699 -12 7 -24 7c-28 0 -60.167 -17.333 -96.5 -52s-69.5 -99.667 -99.5 -195c4.66699 -0.666992 12.334 -1 23.001 -1h28z" />
    <glyph glyph-name="f" unicode="f" horiz-adv-x="420" 
d="M126 202c-54 0 -101 39.998 -141 119.998c-24.667 48.667 -37 106 -37 172c0 26 2 53.333 6 82c6.66699 41.333 19.834 95.333 39.501 162s44.167 134 73.5 202s62 125.333 98 172s73.667 70.667 113 72c27.333 -1.33301 56 -12 86 -32c20 -13.333 30 -21.666 30 -24.999
l-5 1c-6 2 -12 3 -18 3c-34.667 0 -74.667 -35.667 -120 -107l-40 -70l-24 -52c-16.667 -34.667 -34.667 -81.334 -54 -140.001c15.333 -1.33301 30 -2 44 -2c50.667 0 99.834 8.33301 147.501 25s87.167 36 118.5 58l47 33l21 -15
c-98.667 -83.333 -214.334 -126.666 -347.001 -129.999l10 -15c55.333 -72.667 84.666 -164.667 87.999 -276c0 -29.333 -4.33301 -62.166 -13 -98.499s-21.667 -67.833 -39 -94.5c-19.333 -30 -47.333 -45 -84 -45zM146 240.998c22.667 4 42.668 24.3311 60.001 60.998
s27.666 82.334 30.999 137.001v5c0 67.333 -14 128.5 -42 183.5s-53.333 85.167 -76 90.5c-26 -84.667 -42 -180 -48 -286v-12c0 -71.333 11.333 -121.666 34 -150.999c14 -18.667 27.333 -28 40 -28h1z" />
    <glyph glyph-name="g" unicode="g" horiz-adv-x="544" 
d="M-62 -287c-38 0 -65.334 8.33398 -82.001 25.001c-10.667 9.33301 -16 22 -16 38c0 13.333 5.5 34.333 16.5 63s42.167 82 93.5 160c48.667 74 104.334 153.667 167.001 239l72 227c-20 -40.667 -39.333 -75.334 -58 -104.001c-22.667 -34 -44.667 -51 -66 -51
s-41.333 3.66699 -60 11c-44 17.333 -73.667 60.666 -89 129.999c-4.66699 21.333 -7 46 -7 74c0 23.333 1.66699 49.333 5 78c12 70.667 31 129.334 57 176.001s50.667 81.667 74 105l34 35c17.333 10 34.666 15 51.999 15c12 0 28.333 -4.16699 49 -12.5
s42.834 -24 66.501 -47s41.167 -42.833 52.5 -59.5l43 135l1 1l1 1c0.666992 0.666992 1.83398 1.16699 3.50098 1.5s3.83398 0.833008 6.50098 1.5c12.667 0 31.334 -6.66699 56.001 -20c16 -7.33301 27.667 -17.333 35 -30c4.66699 -8 7 -15.333 7 -22l-1 -4l-33 -101
l-79 -248l230 291l40 50c7.33301 8.66699 14.666 13 21.999 13c5.33301 0 11.666 -1.33301 18.999 -4l-99 -122l-234 -297l-93 -303c-4.66699 -30 -19.334 -83.667 -44.001 -161c-36 -106 -76 -179.667 -120 -221s-84.667 -62.333 -122 -63zM83.999 350.001
c15.333 6 34.667 30.999 58 74.999s46.333 92.5 69 145.5s40 96.833 52 131.5l11 32l20 66c-34 33.333 -64.333 50 -91 50c-6.66699 0 -19.334 -3.16699 -38.001 -9.5s-39.167 -30.5 -61.5 -72.5s-41.166 -90.333 -56.499 -145c-10 -40.667 -15 -85.667 -15 -135
c0 -39.333 4 -72.166 12 -98.499s21.333 -39.5 40 -39.5zM-106 -248c18 0 37.334 15.666 58.001 46.999c38 56 74 138.333 108 247c7.33301 28.667 18.666 67.334 33.999 116.001c-150 -208 -225 -336.667 -225 -386c0 -16 8.33301 -24 25 -24z" />
    <glyph glyph-name="h" unicode="h" horiz-adv-x="601" 
d="M327 222l-15.999 0.00585938c-7.33301 0 -14.333 0.666992 -21 2c-43.333 11.333 -74 39.666 -92 84.999c-11.333 27.333 -17 56 -17 86c0 20.667 2.66699 42 8 64c17.333 65.333 52.666 175 105.999 329c-52.667 -62.667 -107 -132.667 -163 -210l-145 -206
c-1.33301 -0.666992 -2.33301 -1.66699 -3 -3c-6 -2.66699 -11.333 -4 -16 -4c-8 0 -21 3.66699 -39 11l-13 6c-14.667 7.33301 -25 14.666 -31 21.999c-10.667 9.33301 -16 20 -16 32c0 11.333 0.666992 20 2 26l24 78l6 18l226 707l54 166l2 2
c1.33301 1.33301 4.66602 2 9.99902 2c10 0 22 -3 36 -9c20 -8.66699 34.333 -17.167 43 -25.5s14.667 -17.5 18 -27.5l1 -9l-42 -128c-30.667 -90 -82.334 -251.667 -155.001 -485l-25 -81l-29 -91l-6 -22l-14 -44l-21 -65l-9 -31l10 16
c44.667 78.667 125.334 189 242.001 331c46.667 56.667 73.334 85 80.001 85l1 -1h3c10.667 0 29 -8.66699 55 -26c21.333 -14.667 33 -30.334 35 -47.001l-1 -13l-61 -202c-40.667 -137.333 -61 -218.666 -61 -243.999c0 -22 6.33301 -38.333 19 -49
c5.33301 -4.66699 12 -7 20 -7c29.333 8.66699 87.666 104 174.999 286c80.667 168.667 126.667 273.667 138 315l1 1c2 0 4.66699 -5 8 -15l3 -11c-4 -14.667 -19.167 -53.334 -45.5 -116.001s-57.666 -132.334 -93.999 -209.001s-71.833 -143.334 -106.5 -200.001
s-62.667 -86.334 -84 -89.001z" />
    <glyph glyph-name="i" unicode="i" horiz-adv-x="377" 
d="M81 336c-8 0 -15.333 0.666992 -22 2c-43.333 11.333 -74 40 -92 86c-11.333 27.333 -17 56 -17 86c0 32.667 16.333 105.334 49 218.001c14.667 51.333 31 98.333 49 141c8 18.667 17.333 43.667 28 75c2 1.33301 3.5 2.16602 4.5 2.49902s3.83301 0.5 8.5 0.5
c9.33301 0 27.333 -8.66699 54 -26c23.333 -16 35 -33.667 35 -53c0 -1.33301 -0.333008 -3 -1 -5v-3l-18 -57l-40.5 -136c-15 -52 -28.167 -100.333 -39.5 -145s-17 -75 -17 -91c0 -22 6.33301 -38.667 19 -50c5.33301 -4 12 -6 20 -6c30 7.33301 89.333 83 178 227
c84.667 137.333 131.667 222.666 141 255.999l1 1c1.33301 0 4 -5 8 -15l3 -11c-4.66699 -13.333 -20.667 -45.166 -48 -95.499s-59.833 -106 -97.5 -167s-74 -114.167 -109 -159.5s-61.833 -70 -80.5 -74zM175 983c-7.33301 0 -14.665 1.33301 -21.998 4
c-23.333 10.667 -35 28.334 -35 53.001c0 7.33301 1.33301 14.666 4 21.999l16 38c10 24 27.667 36 53 36c7.33301 0 14.666 -1.66699 21.999 -5c23.333 -9.33301 35 -26.333 35 -51c0 -7.33301 -1.33301 -15 -4 -23l-16 -39c-12.667 -23.333 -30.334 -35 -53.001 -35z" />
    <glyph glyph-name="j" unicode="j" horiz-adv-x="306" 
d="M-354 -320h-7c-38 0 -69 5.33301 -93 16c-32 9.33301 -58 33 -78 71c-8.66699 17.333 -13 38 -13 62c0 31.333 7 68.666 21 111.999c53.333 137.333 202.666 318 447.999 542l157 494l2 3c3.33301 1.33301 6.33301 2 9 2c8 0 20.333 -3 37 -9
c34.667 -14 55 -31.667 61 -53l1 -9l-1 -4l-24 -73l-60 -188l68 60c96 82.667 157 139 183 169c0.666992 2 1.66699 3 3 3c3.33301 0 7 -6.33301 11 -19l2 -15l-81 -68l-201 -176c-54 -166 -104 -326.667 -150 -482c-5.33301 -30 -20.333 -82.667 -45 -158
c-61.333 -183.333 -144.666 -276.666 -249.999 -279.999zM-407 -280c25.333 4 49.5 22.001 72.5 54.001s43.667 68.5 62 109.5s32.833 77.5 43.5 109.5l15 47h1l121 391c-240 -228.667 -377.667 -399.667 -413 -513c-8 -30.667 -12 -57.334 -12 -80.001
c0 -39.333 10.5 -68.833 31.5 -88.5s44.833 -29.5 71.5 -29.5h7zM167 1002c-7.33301 0 -14.667 1.66699 -22 5c-23.333 10 -35 27.333 -35 52c0 7.33301 1.33301 14.666 4 21.999l16 39c10.667 24 28.334 36 53.001 36c7.33301 0 14.666 -1.66699 21.999 -5
c23.333 -10.667 35 -28 35 -52c0 -7.33301 -1.33301 -14.666 -4 -21.999l-16 -39c-13.333 -24 -31 -36 -53 -36z" />
    <glyph glyph-name="k" unicode="k" horiz-adv-x="612" 
d="M-9 346c-11.333 0 -20.998 1.66406 -28.998 4.99707c-8 2 -18.333 5.66699 -31 11c-26.667 14 -40 30 -40 48c0 11.333 0.666992 20 2 26c13.333 45.333 22.333 74.333 27 87l5 19l224 697l53 166l6 4h6l4 1l5 -1c10 -2.66699 19 -5.66699 27 -9
c21.333 -9.33301 36 -17.666 44 -24.999c10 -10 15.667 -19.333 17 -28l1 -13l-42 -124c-30.667 -90 -75.334 -230.333 -134.001 -421l-16 -49c48 56.667 97.167 106.167 147.5 148.5s93.5 69.166 129.5 80.499c8.66699 -3.33301 13.334 -5.33301 14.001 -6l2 -2v-1
c0 -0.666992 -4.33301 -3.33398 -13 -8.00098c13.333 -6.66699 30.666 -23.167 51.999 -49.5s32.333 -61.166 33 -104.499c0 -43.333 -24 -94.333 -72 -153c-50.667 -53.333 -113.667 -80 -189 -80c-58 0 -106.667 13 -146 39l-2 -5c58 -93.333 105.333 -141 142 -143
c53.333 2.66699 138.666 59.334 255.999 170.001c93.333 86.667 154.333 148 183 184c0 0.666992 0.333008 1 1 1c1.33301 0 2.66602 -0.666992 3.99902 -2c7.33301 -5.33301 11.333 -12.333 12 -21c0 -9.33301 -3 -17 -9 -23c-108 -110.667 -178 -181.334 -210 -212.001
c-94 -91.333 -167 -137 -219 -137c-18 0 -37.667 8.83301 -59 26.5s-41.833 38.334 -61.5 62.001s-36.167 44.834 -49.5 63.501l-4 -15c-6 -18 -11.333 -35 -16 -51c-2.66699 -9.33301 -4.33398 -14.333 -5.00098 -15l-4 -15
c-7.33301 -21.333 -12.666 -37.833 -15.999 -49.5s-5.16602 -17.667 -5.49902 -18s-5.5 -18.166 -15.5 -53.499l-1 -2c-2 -2 -4.66699 -3 -8 -3zM131.002 629.997c40.667 0 78 10.167 112 30.5s59 40.5 75 60.5c60 70.667 90 128.334 90 173.001
c0 21.333 -7.33301 36.666 -22 45.999l-3 1c-116.667 -72.667 -212 -164.667 -286 -276l-9 -27c8 -5.33301 22.333 -8 43 -8z" />
    <glyph glyph-name="l" unicode="l" horiz-adv-x="316" 
d="M51 280c-24 0 -48.666 10.001 -73.999 30.001s-43.333 53 -54 99c-3.33301 15.333 -5 32.666 -5 51.999c0 36.667 6.33301 80.334 19 131.001c4.66699 18.667 11 38 19 58l50 158l181 562l1 1l1 0.5c0.666992 0.333008 1.5 0.666016 2.5 0.999023l4.5 1.5
c26 0 53.667 -11.333 83 -34c9.33301 -9.33301 15 -18.666 17 -27.999l1 -13l-42 -124c-36 -106 -55.333 -166 -58 -180l-6 -19c0 -2 -0.666992 -4 -2 -6l-5 -15c-3.33301 -10 -5 -16 -5 -18l-32 -99l-58 -187c-1.33301 -2 -2.33301 -4.66699 -3 -8
s-4.33398 -15.666 -11.001 -36.999l-28 -88c-1.33301 -5.33301 -6.33301 -21 -15 -47v-1c-10.667 -40 -16 -75 -16 -105c0 -34.667 10.667 -54 32 -58c29.333 0 72.333 40 129 120s109.667 200.333 159 361l20 -9c-16 -65.333 -41.833 -136.333 -77.5 -213
s-74 -142.834 -115 -198.501s-78.5 -84.834 -112.5 -87.501z" />
    <glyph glyph-name="m" unicode="m" horiz-adv-x="946" 
d="M716 302l-9.00293 -0.000976562c-56.667 0 -97 29.333 -121 88c-10.667 26.667 -16 54.667 -16 84c0 21.333 2.66699 43 8 65c7.33301 26.667 21.333 67.667 42 123l33 90c19.333 53.333 29 87 29 101c0 4 -1 6.66699 -3 8c-9.33301 0 -49 -41 -119 -123
c-67.333 -77.333 -120.666 -144 -159.999 -200c-1.33301 -2.66699 -5.66602 -17.5 -12.999 -44.5s-12.333 -41.833 -15 -44.5c-4 -2 -7.16699 -3.16699 -9.5 -3.5s-4.16602 -0.5 -5.49902 -0.5c-6.66699 0 -19.667 3.66699 -39 11c-28 12 -45 24.667 -51 38
c-2.66699 5.33301 -4 12.666 -4 21.999s1 18 3 26l13 37c22 55.333 43.333 114.333 64 177c20 58.667 30 94 30 106c0 4 -1 6 -3 6c-11.333 0 -68 -74 -170 -222l-140 -204l-17 -45l-15 -43l-1 -1c0 -0.666992 -0.333008 -1 -1 -1v-1
c-0.666992 -0.666992 -1.5 -1.16699 -2.5 -1.5s-5.5 -0.833008 -13.5 -1.5c-8 0 -21 3.66699 -39 11l-13 6c-26.667 14 -40 30 -40 48c0 11.333 0.666992 19.666 2 24.999l74 240l77 245l6 4h6l4 1l5 -1c10 -2.66699 19 -5.66699 27 -9
c21.333 -9.33301 36 -17.666 44 -24.999c10 -10 15.667 -19.333 17 -28l1 -13l-13 -34l-11 -33l-46 -154l-38 -124c34.667 54.667 92.667 136.334 174 245.001c82 111.333 130 171 144 179v1l5 3c11.333 0 19.833 -1 25.5 -3l17.5 -6c28.667 -12.667 47 -26 55 -40
c4 -8 6 -14.667 6 -20v-6l-23 -67l-57 -184c41.333 58 84.166 111.167 128.499 159.5s82.166 87 113.499 116s48 43.833 50 44.5c12.667 0 32 -8.66699 58 -26c20.667 -14 32.334 -30 35.001 -48l-1 -13l-62 -201c-39.333 -133.333 -59.666 -214.666 -60.999 -243.999
c0.666992 -22.667 7 -39.334 19 -50.001c5.33301 -4 11 -6 17 -6c27.333 0 82.666 84.667 165.999 254c72 149.333 113.667 244.333 125 285l1 1c0.666992 0 1 -0.166992 1 -0.5s2.33301 -5.16602 7 -14.499l3 -11c-14 -48.667 -56 -146.667 -126 -294
c-81.333 -168 -140.666 -254.333 -177.999 -259z" />
    <glyph glyph-name="n" unicode="n" horiz-adv-x="611" 
d="M391 297l-17.002 0.00488281c-7.33301 0 -14.333 0.666992 -21 2c-43.333 11.333 -74 39.666 -92 84.999c-10.667 27.333 -16 56.333 -16 87c0 20.667 2.33301 41.667 7 63c8 26.667 22.333 67.667 43 123c40.667 110 61 174 61 192
c0 3.33301 -0.666992 5.66602 -2 6.99902c-4.66699 0 -18 -11.667 -40 -35c-49.333 -50.667 -105.666 -116 -168.999 -196c-46.667 -58.667 -71.667 -94.667 -75 -108l-9 -29c-3.33301 -10.667 -6.16602 -20.334 -8.49902 -29.001s-4.16602 -13.667 -5.49902 -15v-1
c-6 -2 -11.333 -3 -16 -3c-8 0 -21 3.66699 -39 11l-13 6c-20 10.667 -32.667 21 -38 31c-2 4.66699 -3 10.667 -3 18c0 16.667 1 27 3 31c13.333 44.667 35.666 115 66.999 211l57 177l2 3c3.33301 1.33301 6.33301 2 9 2c8 0 20.833 -3.33301 38.5 -10
s31.667 -14.834 42 -24.501s16.166 -18.834 17.499 -27.501l1 -13l-24 -68l-57 -183c69.333 97.333 150.333 189 243 275c32 29.333 49.333 44 52 44c11.333 0 29.333 -8.16699 54 -24.5s37 -34.5 37 -54.5l-63 -209c-39.333 -133.333 -59.666 -214.666 -60.999 -243.999
c0.666992 -22 7 -38.333 19 -49c5.33301 -4.66699 12 -7 20 -7c28.667 7.33301 82.667 92.333 162 255c73.333 150.667 115.333 245.667 126 285c0 0.666992 0.333008 1 1 1s3 -5 7 -15l3 -11c-4 -14 -17.667 -49.333 -41 -106s-51.5 -119.334 -84.5 -188.001
s-65.667 -128.5 -98 -179.5s-58.833 -77.5 -79.5 -79.5z" />
    <glyph glyph-name="o" unicode="o" horiz-adv-x="486" 
d="M113 360l-10.999 0.00195312c-66.667 0 -117.334 28 -152.001 84c-20.667 34 -31 77 -31 129c0 39.333 6 84 18 134c17.333 62 38.5 110.333 63.5 145s47.833 59 68.5 73l30 20c36.667 18 67 27 91 27c32 0 55 -9.33301 69 -28c4 -6 6 -12 6 -18
c0 -6.66699 -1.33301 -10 -4 -10c-3.33301 0 -6.33301 1.66699 -9 5s-7 5 -13 5c-14.667 0 -39.167 -17.5 -73.5 -52.5s-67.833 -104.167 -100.5 -207.5c-11.333 -35.333 -20.333 -77.333 -27 -126c-1.33301 -12 -2 -23.333 -2 -34c0 -68 29 -102 87 -102
c4.66699 0 7.66699 0.333008 9 1c46 10 79.5 43.167 100.5 99.5s35.5 118.166 43.5 185.499l-1 1c-36 11.333 -61.667 32.666 -77 63.999c-4.66699 10 -7 20.667 -7 32c0 24 11 51 33 81c18 21.333 36 32 54 32c11.333 0 20 -5 26 -15v-1
c6.66699 -6.66699 10 -29.334 10 -68.001c0 -11.333 -1 -26.666 -3 -45.999l-6 -59l5 -1l4 1c21.333 0 45.333 7.33301 72 22c44.667 24.667 90 58 136 100l24 22l-34 -95l-20 -12c-67.333 -42.667 -125 -64 -173 -64l-16 1c-10.667 -76 -28.5 -145.167 -53.5 -207.5
s-65.5 -100.833 -121.5 -115.5c-5.33301 -1.33301 -10.333 -2 -15 -2zM280.001 716.002c6 39.333 9 75 9 107v26c-0.666992 17.333 -5 26 -13 26s-19.5 -9.16699 -34.5 -27.5s-22.5 -36.833 -22.5 -55.5c0 -7.33301 2.5 -19.333 7.5 -36s22.833 -30 53.5 -40z" />
    <glyph glyph-name="p" unicode="p" horiz-adv-x="626" 
d="M-141 -101c-11.333 0 -20.999 1.66699 -28.999 5c-8 2 -18.333 5.66699 -31 11c-26.667 14 -40 30 -40 48c0 11.333 0.666992 20 2 26c13.333 45.333 22.333 74.333 27 87l5 19l224 697l53 166l6 4h14c9.33301 -2 18.666 -5 27.999 -9
c21.333 -9.33301 36 -17.666 44 -24.999c10 -10 15.667 -19.333 17 -28l1 -13l-57 -169l6 9c72.667 118.667 126 182.667 160 192c7.33301 2 16 3.33301 26 4c11.333 0 21.666 -1.33301 30.999 -4c52.667 -16.667 86.667 -61.667 102 -135c3.33301 -14.667 5 -30.667 5 -48
c0 -32 -5.33301 -69 -16 -111c86.667 61.333 168.667 147.666 246 258.999c2.66699 3.33301 5.66699 5 9 5c6.66699 0 10.667 -3 12 -9c0 -3.33301 -0.666992 -6 -2 -8c-86.667 -124 -178.667 -218.333 -276 -283c-2.66699 -9.33301 -6 -19 -10 -29
c-32.667 -84.667 -71.667 -145.667 -117 -183c-35.333 -28 -66 -43 -92 -45l-15 -2c-51.333 2 -90.666 14 -117.999 36c-17.333 11.333 -32 25.666 -44 42.999l-4 5l-112 -359l-9 -30c-14 -44.667 -21.167 -67.167 -21.5 -67.5s-5.5 -18.166 -15.5 -53.499l-1 -2
c-2 -2 -4.66699 -3 -8 -3zM37.001 449c50.667 6.66699 123.335 29.667 218.002 69c23.333 44.667 42.666 90.667 57.999 138c20.667 64.667 31 116.667 31 156c0 2 -0.166992 10.167 -0.5 24.5s-7.5 27.166 -21.5 38.499c-6.66699 5.33301 -14.334 8 -23.001 8
c-21.333 0 -53.333 -30.667 -96 -92c-36.667 -52 -72 -107.667 -106 -167c-5.33301 -7.33301 -25.333 -65.666 -60 -174.999zM111.002 388c42.667 0 84.334 32.333 125.001 97c-86.667 -33.333 -153.334 -53.333 -200.001 -60c26 -24.667 51 -37 75 -37z" />
    <glyph glyph-name="q" unicode="q" horiz-adv-x="635" 
d="M259 -75l-5.99609 0.000976562c-21.333 0 -44.333 10.167 -69 30.5s-42.334 53.166 -53.001 98.499c-4 16 -6 33.667 -6 53c0 55.333 12.667 118.333 38 189l1 1l32 101c9.33301 28.667 15 47 17 55l46 141c-58.667 -127.333 -105 -196.333 -139 -207
c-6.66699 -2 -14.334 -3 -23.001 -3c-10 0 -21.333 1.33301 -34 4c-36.667 5.33301 -67.334 29.333 -92.001 72c-16 27.333 -24 67 -24 119c0 91.333 15.333 168 46 230c27.333 56 60.666 95 99.999 117l19 11c20.667 6 39.667 9 57 9c18 0 38.667 -4.5 62 -13.5
s45 -23.833 65 -44.5s34 -37.334 42 -50.001l57 177l2 1c0.666992 0.666992 1.5 1.33398 2.5 2.00098s3.83301 1 8.5 1c12.667 0 31.334 -6.33301 56.001 -19c9.33301 -4.66699 16.666 -9.66699 21.999 -15c10.667 -10.667 16.667 -20 18 -28l1 -13l-42 -124l-54 -167
c79.333 82 155.333 154.667 228 218l56 51c4 4 8 6 12 6c1.33301 0 3.83301 -0.833008 7.5 -2.5s5.5 -5.16699 5.5 -10.5c0 -4.66699 -22 -26.667 -66 -66c-84 -74 -170.667 -157 -260 -249l-21 -66c-22 -69.333 -36 -114.333 -42 -135l-12 -35c-2 -8 -9 -30.667 -21 -68
c-9.33301 -28 -17.666 -55 -24.999 -81c0 -0.666992 -0.333008 -1 -1 -1l-15 -51l-5 -14l-10 -34c-11.333 -40 -17 -75 -17 -105v-27c0 -16.667 10.667 -26.667 32 -30h1c16 0 30.833 25.333 44.5 76s25.5 117.667 35.5 201s18 173.333 24 270l32 100
c-9.33301 -150.667 -22 -288.667 -38 -414c-10.667 -93.333 -22.834 -160 -36.501 -200s-33.167 -60.333 -58.5 -61zM113.004 425.001l11.999 1c17.333 7.33301 40.5 38.166 69.5 92.499s56.5 111.833 82.5 172.5s43.333 105.334 52 134.001c-27.333 42 -56 63 -86 63
c-1.33301 0 -10.166 -0.666992 -26.499 -2s-37.833 -19.333 -64.5 -54s-47.667 -78.667 -63 -132s-23 -109.333 -23 -168c0 -4 0.166992 -15.667 0.5 -35s6.83301 -39 19.5 -59c6.66699 -8.66699 15.667 -13 27 -13z" />
    <glyph glyph-name="r" unicode="r" horiz-adv-x="409" 
d="M153 308c-8 0 -15.667 1 -23 3c-43.333 11.333 -74 39.666 -92 84.999c-10.667 27.333 -16 56.333 -16 87c0 20.667 2.33301 41.667 7 63c12 45.333 28.667 99.333 50 162l3 11c4 14.667 6 30.334 6 47.001l-1 23c-3.33301 25.333 -17.333 44.333 -42 57
c-28.667 13.333 -43 32.333 -43 57c0 16.667 7 34.334 21 53.001l72 -33c9.33301 -5.33301 14 -13 14 -23v-7c4 -12 14 -25.333 30 -40c26.667 -25.333 41.667 -38 45 -38l17 -13c15.333 -13.333 23 -27.333 23 -42l-2 -9l-44 -153c-30 -105.333 -45 -170.333 -45 -195
c0.666992 -22 7 -38.333 19 -49c5.33301 -4.66699 12 -7 20 -7c14 3.33301 36.167 29.333 66.5 78s62.5 105.667 96.5 171s63.667 125.166 89 179.499s40 88.5 44 102.5c0 0.666992 0.333008 1 1 1s3 -5 7 -15l3 -11c-4 -14 -18.333 -48.333 -43 -103
s-54 -115.334 -88 -182.001s-67.5 -125.167 -100.5 -175.5s-59.5 -78.166 -79.5 -83.499c-4.66699 -0.666992 -9.66699 -1 -15 -1z" />
    <glyph glyph-name="s" unicode="s" horiz-adv-x="489" 
d="M5 255l-4.99902 0.000976562c-64 0 -113.667 22.333 -149 67c-3.33301 -4.66699 -5 -7.33398 -5 -8.00098c-2.66699 -3.33301 -6 -5 -10 -5c-2 0 -4.16699 0.666992 -6.5 2s-3.66602 3 -3.99902 5s-0.5 3.33301 -0.5 4c0 2 0.333008 3.66699 1 5s4 7 10 17l-6 11l4 -1
c1.33301 0 2.33301 1 3 3l-1 4c0 2 0.333008 3 1 3s1.66699 -0.833008 3 -2.5s3 -3.16699 5 -4.5c50 78 116 160.333 198 247c-9.33301 48.667 -14 103.334 -14 164.001c0 58.667 12 109.667 36 153c39.333 58.667 75.666 88 108.999 88c10 0 19 -3 27 -9
c10.667 -7.33301 19 -13.833 25 -19.5s10.333 -10.834 13 -15.501s4 -8.66699 4 -12c-0.666992 -6 -3.66699 -10.667 -9 -14l-9 -4l-7 -5c-16 -12 -29.667 -32 -41 -60c-14 -33.333 -21 -75.333 -21 -126l1 -36c119.333 101.333 247.666 169.333 384.999 204h3
c1.33301 0 3.33301 -0.833008 6 -2.5s4 -4.83398 4 -9.50098c0 -5.33301 -2.66699 -8.66602 -8 -9.99902c-138 -34.667 -267.333 -104.667 -388 -210c2 -23.333 5.66699 -49.333 11 -78c7.33301 -38 11 -83 11 -135c0 -132 -58.667 -202 -176 -210zM-66.999 316.001
c48.667 0 84.332 21.333 106.999 64c14 27.333 21 59 21 95c0 22 -2.66699 46.667 -8 74l-1 6l-4 19c-75.333 -80.667 -137.333 -158.667 -186 -234c24.667 -16 48.334 -24 71.001 -24z" />
    <glyph glyph-name="t" unicode="t" horiz-adv-x="351" 
d="M54 314c-23.333 0 -47.832 10.1729 -73.499 30.5059s-43.834 53.166 -54.501 98.499c-3.33301 15.333 -5 32.666 -5 51.999c0 61.333 12.667 124.666 38 189.999l9 30l125 387c-99.333 27.333 -149 70 -149 128c0 16.667 2.66699 27.667 8 33
c2.66699 4.66699 6.66699 7 12 7c7.33301 0 12 -3.33301 14 -10c0 -4.66699 -0.333008 -8.33398 -1 -11.001c-0.666992 0 -1.66699 -2.16699 -3 -6.5s-2 -9.16602 -2 -14.499c0 -9.33301 3 -19.333 9 -30c13.333 -26.667 53.666 -49.334 120.999 -68.001l88 274l5 4l9 1
c11.333 0 29.333 -6.33301 54 -19s38.334 -27.334 41.001 -44.001l1 -13l-42 -124l-33 -101c54.667 -6 138.667 -9 252 -9c7.33301 0 11.666 -4.66699 12.999 -14c0 -4 -1.5 -7.5 -4.5 -10.5s-24.5 -4.5 -64.5 -4.5c-78 0 -146.333 3.33301 -205 10
c-13.333 -40 -20.166 -61 -20.499 -63s-0.5 -3.33301 -0.5 -4l-1 -1v-2c-0.666992 -0.666992 -1 -1.5 -1 -2.5s-0.333008 -2.16699 -1 -3.5s-1.33398 -3 -2.00098 -5l-85 -271l-13 -42c-0.666992 -0.666992 -1.16699 -1.5 -1.5 -2.5l-1.5 -4.5
c-1.33301 -8.66699 -9 -33.667 -23 -75l-31 -100c-11.333 -42 -17 -78.667 -17 -110c0 -30.667 11 -48 33 -52h1c26.667 0 69.667 43.5 129 130.5s120.333 205.5 183 355.5c2.66699 4.66699 6 7 10 7c2 0 4.16699 -0.666992 6.5 -2s3.83301 -2.83301 4.5 -4.5
s1 -3.16699 1 -4.5l-1 -5c-25.333 -66 -57.666 -137.667 -96.999 -215s-80 -144.333 -122 -201s-79.333 -86.334 -112 -89.001z" />
    <glyph glyph-name="u" unicode="u" horiz-adv-x="634" 
d="M397 293c-8.66699 0 -17.0049 1.00488 -25.0049 3.00488c-43.333 11.333 -74 40 -92 86c-10.667 27.333 -16 55.666 -16 84.999c0 20.667 2.66699 42 8 64c6.66699 26 17.334 62.333 32.001 109c-35.333 -62 -74.5 -122.833 -117.5 -182.5
s-77.833 -92.834 -104.5 -99.501l-17 -1c-7.33301 0 -14.333 0.666992 -21 2c-43.333 11.333 -74 40 -92 86c-10.667 27.333 -16 55.666 -16 84.999c0 20.667 2.66699 42 8 64c8 36 30.333 108.667 67 218l51 152l1 1c0 1.33301 1.16699 2.16602 3.5 2.49902
s4.83301 0.5 7.5 0.5c10 -2 21.667 -6.66699 35 -14c19.333 -11.333 32.833 -21.666 40.5 -30.999s12.167 -19 13.5 -29l-1 -13l-57 -193c-37.333 -128.667 -56.666 -207.334 -57.999 -236.001c0.666992 -22 7 -38.667 19 -50c4.66699 -4 10.334 -6 17.001 -6
c19.333 0 51 30.333 95 91c39.333 54 75.833 110.667 109.5 170s53.5 98.666 59.5 117.999c0 0.666992 0.166992 1 0.5 1s14.5 41.667 42.5 125l2 2c0.666992 0.666992 3 1.33398 7 2.00098c7.33301 0 20 -4.66699 38 -14c34 -18 52 -38 54 -60l-1 -13l-57 -193
c-37.333 -128 -56.666 -206.667 -57.999 -236c0.666992 -22 7 -38.667 19 -50c4.66699 -4 10.334 -6 17.001 -6c20 0 51.667 30 95 90c39.333 54.667 75.833 111.667 109.5 171s53.5 98.666 59.5 117.999l1 1c1.33301 0 4 -5 8 -15l3 -11
c-6 -19.333 -26.333 -59.333 -61 -120c-104.667 -182.667 -181 -274 -229 -274z" />
    <glyph glyph-name="v" unicode="v" horiz-adv-x="524" 
d="M53 317c-8 0 -15.3379 0.666992 -22.0049 2c-43.333 11.333 -74 40 -92 86c-11.333 27.333 -17 56 -17 86c0 20.667 2.66699 41.667 8 63c6.66699 26.667 34.667 121.334 84 284.001l67 218c0 2 4 3 12 3c6.66699 0 18.334 -4.66699 35.001 -14
c19.333 -11.333 32.833 -21.666 40.5 -30.999s12.167 -19 13.5 -29l-1 -13l-74 -258c-47.333 -169.333 -71.666 -270 -72.999 -302c0 -22 6.33301 -38.667 19 -50c4.66699 -4 10 -6 16 -6h4c28.667 5.33301 64 41.5 106 108.5s82.5 141.333 121.5 223
s68.167 147.167 87.5 196.5c2 19.333 3.5 31.166 4.5 35.499s2.83301 7.5 5.5 9.5s5.33398 3 8.00098 3c10 0 15 -5 15 -15v-2c-4 -19.333 -6 -42.333 -6 -69c0 -52.667 11.667 -79 35 -79c2 0 5.66699 0.333008 11 1s15.166 5.33398 29.499 14.001
s32.833 23.334 55.5 44.001c2 2 4.66699 3 8 3c10.667 0 16 -4.66699 16 -14c0 -4 -1.66699 -7.33301 -5 -10c-47.333 -44.667 -85.666 -67 -114.999 -67c-9.33301 0 -17.666 2 -24.999 6c-21.333 13.333 -33.666 39.666 -36.999 78.999
c-22.667 -55.333 -53 -121.833 -91 -199.5s-77.5 -146.834 -118.5 -207.501s-77.5 -93.334 -109.5 -98.001z" />
    <glyph glyph-name="w" unicode="w" horiz-adv-x="835" 
d="M81 353c-8.66699 0 -17.0039 1.00098 -25.0039 3.00098c-43.333 11.333 -74 40 -92 86c-10.667 26.667 -16 54.667 -16 84c0 21.333 2.66699 43 8 65c7.33301 32 25.666 91.667 54.999 179l39 113l6 3c8.66699 0 17.167 -2 25.5 -6s19.5 -10.5 33.5 -19.5
s25 -20.5 33 -34.5c2.66699 -7.33301 4 -13.666 4 -18.999c0 -1.33301 -0.333008 -3 -1 -5l-1 -3l-14 -45l-31.5 -108.5c-11.667 -41.667 -22 -81 -31 -118s-13.833 -63.167 -14.5 -78.5c0.666992 -22 7 -38.667 19 -50c4.66699 -4 10.334 -6 17.001 -6
c30 0 86 66.333 168 199c0 2.66699 0.666992 6.66699 2 12c14 53.333 35.333 120.666 64 201.999l47 136l6 3c10.667 0 24.334 -4.66699 41.001 -14c20 -12.667 33.5 -23.334 40.5 -32.001s11.5 -18 13.5 -28l-1 -13l-54 -176c-35.333 -121.333 -53 -194.666 -53 -219.999
c0 -22 6.33301 -38.667 19 -50c4.66699 -4 11.334 -6 20.001 -6c53.333 8 128.333 107.333 225 298c36.667 72 62.334 126.667 77.001 164c1.33301 23.333 3.33301 40.666 6 51.999c1.33301 8 6 12 14 12c9.33301 0 14 -5.66699 14 -17
c-2.66699 -14 -4.33398 -31.333 -5.00098 -52c0 -24 1.33301 -44 4 -60c4 -24 14.333 -36 31 -36l10 1c18 2 46.333 21.333 85 58c2.66699 2 5.33398 3 8.00098 3c10.667 0 16 -4.66699 16 -14c0 -4 -1.33301 -7.33301 -4 -10c-47.333 -44.667 -86 -67 -116 -67
c-9.33301 0 -17.666 2 -24.999 6c-20.667 14.667 -32.667 38 -36 70c-18.667 -45.333 -46 -102.333 -82 -171c-96.667 -184 -175.667 -276 -237 -276c-46 0 -81.333 21 -106 63c-19.333 31.333 -29 68 -29 110c-30.667 -48 -60.667 -90 -90 -126
c-34 -40.667 -63 -61 -87 -61z" />
    <glyph glyph-name="x" unicode="x" horiz-adv-x="486" 
d="M-111 255l-32.001 2l92 139c64 96 110.333 161.667 139 197l-145 327l2 7c2.66699 4 6.33398 7.33301 11.001 10c26.667 14.667 51.667 22 75 22c12.667 0 23.334 -3 32.001 -9l9 -9l107 -247l110 114.5l95 97.5l39 39h41l-44 -44l-108 -107l-122 -124l146 -315l-1 -5
c-2.66699 -7.33301 -12 -14.333 -28 -21l-17 -7c-18 -6 -33.333 -9 -46 -9c-18 0 -33.333 11.333 -46 34l-99 223c-30.667 -38 -73.334 -99.667 -128.001 -185z" />
    <glyph glyph-name="y" unicode="y" horiz-adv-x="633" 
d="M-24 -279l-7 0.00292969c-38.667 0 -70 5 -94 15c-31.333 10 -57 34 -77 72c-8.66699 17.333 -13 38.333 -13 63c0 30.667 6.66699 67.667 20 111c53.333 136 203 316.333 449 541l66 208c-100.667 -195.333 -182.667 -293 -246 -293c-56 0 -96 29.333 -120 88
c-10.667 27.333 -16 55.666 -16 84.999c0 20.667 2.66699 42 8 64c13.333 50 34.666 117.333 63.999 202l46 136c4.66699 2 7.33398 3 8.00098 3h5c7.33301 -1.33301 14 -3.33301 20 -6c35.333 -16.667 57 -34.667 65 -54c2.66699 -6 4 -12.333 4 -19l-1 -8l-54 -176
c-35.333 -120.667 -53 -194 -53 -220c0 -22 6.33301 -38.667 19 -50c4.66699 -4 10 -6 16 -6c26 0 58.333 26 97 78c61.333 83.333 124 194.666 188 333.999c26.667 86 40.5 129.333 41.5 130l3 2c1 0.666992 3.5 1 7.5 1c14.667 0 33.667 -6.33301 57 -19
c16.667 -8 28.334 -18 35.001 -30c4 -7.33301 6 -14 6 -20v-6l-85 -260c140.667 121.333 224.334 197.666 251.001 228.999c1.33301 1.33301 2.66602 2 3.99902 2c3.33301 0 6.66602 -6.33301 9.99902 -19l3 -15l-81 -67l-202 -176l-150 -483
c-5.33301 -29.333 -20 -82 -44 -158c-62.667 -184 -146 -277 -250 -279zM-78 -239.997c26 4 50.5 22.167 73.5 54.5s43.5 68.833 61.5 109.5s32.333 77 43 109l16 47l122 391c-238.667 -228 -376.667 -398.667 -414 -512c-8 -32 -12 -59.333 -12 -82
c0 -38 10.5 -67 31.5 -87s44.833 -30 71.5 -30h7z" />
    <glyph glyph-name="z" unicode="z" horiz-adv-x="580" 
d="M122 17c-8 0 -15.6719 2.33398 -23.0049 7.00098c-10 7.33301 -17.167 23.166 -21.5 47.499s-6.5 42.5 -6.5 54.5c0 24.667 4.33301 60.834 13 108.501s40.667 107.5 96 179.5c-21.333 -4 -45.666 -9 -72.999 -15c-82 -20 -136.333 -36.333 -163 -49
c-5.33301 -2 -10.666 -3 -15.999 -3c-11.333 0 -21.666 5 -30.999 15l-44 54c-4 4.66699 -6 9.66699 -6 15c0 2.66699 1.33301 5.33398 4 8.00098l421 390c-6.66699 -2 -14 -3.66699 -22 -5c-26.667 -4.66699 -51.667 -7 -75 -7c-12.667 0 -24.667 0.666992 -36 2
c-57.333 8.66699 -103 25.5 -137 50.5s-57.333 46.833 -70 65.5c-0.666992 0.666992 -1.16699 1.5 -1.5 2.5s-0.5 2.16699 -0.5 3.5c0 6 3 9 9 9c2.66699 0 15.667 -2.33301 39 -7c11.333 -2 26.333 -3 45 -3c58.667 2 130.667 8 216 18c40 5.33301 67 8 81 8
c8.66699 0 18 -19.667 28 -59c2.66699 -9.33301 4 -16 4 -20c0 -0.666992 -0.166992 -1.33398 -0.5 -2.00098s-1.83301 -2.83398 -4.5 -6.50098l-9.5 -13c-3.66699 -5 -7.16699 -9.33301 -10.5 -13s-5.66602 -6.16699 -6.99902 -7.5l-383 -363
c39.333 15.333 97.666 30 174.999 44c24.667 3.33301 47 5 67 5c38.667 0 70 -6 94 -18c161.333 169.333 287 284.666 377 345.999c2.66699 1.33301 5.33398 2 8.00098 2c9.33301 0 14 -4.66699 14 -14c0 -4.66699 -2 -8.66699 -6 -12
c-88.667 -60.667 -211 -172.667 -367 -336c30 -24 48 -46 54 -66c8 -6 12 -18.667 12 -38c0 -37.333 -23 -96.666 -69 -177.999c-55.333 -96 -98.666 -156.333 -129.999 -181c-16 -12.667 -30.667 -19 -44 -19zM120.995 45.001l5.00195 0.998047c26 2 74.667 63.667 146 185
c41.333 73.333 62.666 126.333 63.999 159c0 8 -0.5 13.833 -1.5 17.5s-1.83301 5.83398 -2.5 6.50098s-1.33398 1.66699 -2.00098 3c-9.33301 4 -25 6 -47 6c-16 0 -35.667 -1 -59 -3l-12 -13c-75.333 -89.333 -113 -179.666 -113 -270.999c0 -10 1.33301 -25.667 4 -47
s6.66699 -35.333 12 -42c2 -1.33301 4 -2 6 -2z" />
    <glyph glyph-name="braceleft" unicode="{" horiz-adv-x="585" 
d="M288 93c-58 0 -104.333 31.333 -139 94c-40 78 -60 182 -60 312l1 55c0 40.667 -8 68.667 -24 84c-10.667 9.33301 -22.334 14 -35.001 14l-14 -2h-1c-10 0 -15 5 -15 15c0 6.66699 3.33301 11 10 13h2l2 1h1l5 1c8.66699 0 22 7.66699 40 23
c43.333 35.333 73.666 112.666 90.999 231.999c18.667 136.667 56.334 251.334 113.001 344.001c58.667 92.667 122 154 190 184c24.667 10.667 38.667 16 42 16c2.66699 0 5.83398 -1 9.50098 -3s5.5 -5.33301 5.5 -10c0 -7.33301 -3.33301 -12.333 -10 -15
c-2.66699 0 -14.667 -4.66699 -36 -14c-62.667 -28.667 -121.667 -86 -177 -172c-6.66699 -11.333 -13 -23 -19 -35c-56.667 -324 -100.667 -505.667 -132 -545c18.667 0 28 -89 28 -267c0 -42.667 -1 -107 -3 -193c3.33301 -8.66699 7 -16.667 11 -24
c28 -52.667 65.333 -79 112 -79c7.33301 0 15 0.666992 23 2c4 0 7.83301 -1.16699 11.5 -3.5s5.5 -5.83301 5.5 -10.5c0 -11.333 -12.667 -17 -38 -17z" />
    <glyph glyph-name="bar" unicode="|" horiz-adv-x="197" 
d="M28 -48c-7.33301 0 -13.001 2.33301 -17.001 7s-6 10.334 -6 17.001l68 1464c0.666992 6 3.33398 11 8.00098 15s10 6 16 6c6.66699 0 12 -2.33301 16 -7s6 -10.334 6 -17.001l-69 -1463c0 -6 -2.16699 -11.167 -6.5 -15.5s-9.5 -6.5 -15.5 -6.5z" />
    <glyph glyph-name="braceright" unicode="}" horiz-adv-x="541" 
d="M185 93c-20 0 -32.001 2.99805 -36.001 8.99805c-2 2.66699 -3 6 -3 10c2.66699 8 8.33398 12 17.001 12c8 -1.33301 15.667 -2 23 -2c50.667 0 92 34.333 124 103c-2 50 -3 114.333 -3 193c0 178 9 267 27 267c-23.333 28.667 -55.333 147.667 -96 357
c-16 79.333 -28 142 -36 188c-31.333 63.333 -69.666 114 -114.999 152c-32.667 26.667 -59.5 44.834 -80.5 54.501s-32.833 14.5 -35.5 14.5c-7.33301 2.66699 -11 7.66699 -11 15c0 4.66699 1.83301 8 5.5 10s6.83398 3 9.50098 3c4 0 18.333 -5.33301 43 -16
c69.333 -31.333 132.333 -93 189 -185s94.334 -206.333 113.001 -343c17.333 -119.333 47.666 -196.666 90.999 -231.999c16.667 -14 29.667 -21.667 39 -23l6 -1l3 -1h3c6.66699 -2.66699 10 -8 10 -16c-1.33301 -8 -6.66602 -12 -15.999 -12h-4
c-0.666992 0.666992 -1.83398 1 -3.50098 1s-2.83398 0.166992 -3.50098 0.5s-2 0.5 -4 0.5c-12.667 0 -24.334 -4.66699 -35.001 -14c-16 -15.333 -24 -43.333 -24 -84v-14c0.666992 -14 1 -28.333 1 -43c0 -128.667 -20 -232 -60 -310
c-34.667 -62.667 -80.667 -94 -138 -94z" />
    <glyph glyph-name="asciitilde" unicode="~" horiz-adv-x="672" 
d="M8 618c-4 0 -7.33398 3.33203 -10.001 9.99902c-1.33301 4 -2 8.33301 -2 13v7c0.666992 6.66699 14 23.667 40 51c20.667 21.333 47.5 42.333 80.5 63s68.833 31 107.5 31c37.333 0 74.333 -18.667 111 -56c32.667 -33.333 65.334 -50 98.001 -50c16 0 33 4.33301 51 13
c32.667 16 61.667 43.333 87 82c13.333 20 21.333 30 24 30c3.33301 0 6.16602 -2.33301 8.49902 -7s3.5 -10 3.5 -16s-1.33301 -11.333 -4 -16c0 -1.33301 -5 -9.33301 -15 -24s-23.833 -31.167 -41.5 -49.5s-38.167 -33.166 -61.5 -44.499
c-16.667 -8.66699 -34.667 -13 -54 -13c-7.33301 0 -19.666 1.5 -36.999 4.5s-41.5 20.333 -72.5 52s-64.833 47.5 -101.5 47.5c-22 0 -44.5 -4.83301 -67.5 -14.5s-45.167 -23.167 -66.5 -40.5s-38.333 -32.833 -51 -46.5s-19.667 -21.5 -21 -23.5s-3.33301 -3 -6 -3z" />
    <glyph glyph-name="exclamdown" unicode="&#xa1;" horiz-adv-x="672" 
 />
    <glyph glyph-name="cent" unicode="&#xa2;" horiz-adv-x="1139" 
 />
    <glyph glyph-name="sterling" unicode="&#xa3;" 
 />
    <glyph glyph-name="currency" unicode="&#xa4;" 
 />
    <glyph glyph-name="yen" unicode="&#xa5;" 
 />
    <glyph glyph-name="brokenbar" unicode="&#xa6;" 
 />
    <glyph glyph-name="section" unicode="&#xa7;" 
 />
    <glyph glyph-name="dieresis" unicode="&#xa8;" horiz-adv-x="1024" 
 />
    <glyph glyph-name="copyright" unicode="&#xa9;" horiz-adv-x="1674" 
 />
    <glyph glyph-name="ordfeminine" unicode="&#xaa;" horiz-adv-x="648" 
 />
    <glyph glyph-name="guillemotleft" unicode="&#xab;" horiz-adv-x="967" 
d="M410 370c-3.33301 0 -152.999 97.3359 -448.999 292.003c-4.66699 3.33301 -7 7.66602 -7 12.999c0.666992 5.33301 3 9.33301 7 12l274 158c75.333 40 131.666 80.667 168.999 122c18.667 19.333 28 37 28 53l-1 11c0 2 1.16699 4.5 3.5 7.5s5.83301 4.5 10.5 4.5
c10 0 15 -7.33301 15 -22c0 -26 -14.5 -53.5 -43.5 -82.5s-61.667 -54.833 -98 -77.5s-59.333 -36.5 -69 -41.5s-19.167 -10.167 -28.5 -15.5l-137 -188l334 -220c4 -2.66699 6 -6.33398 6 -11.001c0 -2.66699 -0.666992 -5.33398 -2 -8.00098
c-3.33301 -4.66699 -7.33301 -7 -12 -7zM801.001 370.003c-3.33301 0 -153.333 97.3359 -450 292.003c-4 3.33301 -6 7.66602 -6 12.999s2.33301 9.33301 7 12c222.667 128.667 344 200 364 214c70.667 48.667 106 88.334 106 119.001v9c0 2.66699 1.16699 5.66699 3.5 9
s5.83301 5 10.5 5c10 0 15 -7 15 -21c0 -26 -14.667 -53.667 -44 -83s-62 -55.333 -98 -78s-59.333 -36.334 -70 -41.001l-27 -16l-138 -188l335 -220c4 -2.66699 6 -6.33398 6 -11.001c0 -2.66699 -0.666992 -5.33398 -2 -8.00098c-3.33301 -4.66699 -7.33301 -7 -12 -7z
" />
    <glyph glyph-name="logicalnot" unicode="&#xac;" 
 />
    <glyph glyph-name="registered" unicode="&#xae;" horiz-adv-x="1674" 
 />
    <glyph glyph-name="macron" unicode="&#xaf;" horiz-adv-x="1024" 
 />
    <glyph glyph-name="degree" unicode="&#xb0;" horiz-adv-x="674" 
 />
    <glyph glyph-name="plusminus" unicode="&#xb1;" 
 />
    <glyph glyph-name="uni00B2" unicode="&#xb2;" 
 />
    <glyph glyph-name="uni00B3" unicode="&#xb3;" 
 />
    <glyph glyph-name="acute" unicode="&#xb4;" horiz-adv-x="1024" 
 />
    <glyph glyph-name="mu" unicode="&#xb5;" horiz-adv-x="1180" 
 />
    <glyph glyph-name="paragraph" unicode="&#xb6;" horiz-adv-x="1024" 
 />
    <glyph glyph-name="periodcentered" unicode="&#xb7;" horiz-adv-x="508" 
 />
    <glyph glyph-name="periodcentered" unicode="&#x2219;" horiz-adv-x="508" 
 />
    <glyph glyph-name="cedilla" unicode="&#xb8;" horiz-adv-x="1024" 
 />
    <glyph glyph-name="uni00B9" unicode="&#xb9;" 
 />
    <glyph glyph-name="ordmasculine" unicode="&#xba;" horiz-adv-x="1522" 
 />
    <glyph glyph-name="guillemotright" unicode="&#xbb;" horiz-adv-x="1100" 
d="M404 396l334 219.997l-137 188l-28 16c-10 4.66699 -33.167 18.334 -69.5 41.001s-70 49.5 -101 80.5s-44.167 61.167 -39.5 90.5c0.666992 4 2.66699 7 6 9s7 2.66699 11 2c4 -1.33301 7 -3.5 9 -6.5s2.33301 -6.5 1 -10.5c-2.66699 -17.333 6.5 -37.166 27.5 -59.499
s47.333 -44.333 79 -66s61.834 -40.167 90.501 -55.5l274 -158c4 -2.66699 6.33301 -6.66699 7 -12c0 -5.33301 -2.33301 -9.66602 -7 -12.999l-441 -290c-2.66699 -1.33301 -5.33398 -2 -8.00098 -2c-4.66699 0 -8.66699 2.33301 -12 7
c-2 3.33301 -2.66699 6.83301 -2 10.5s2.66699 6.5 6 8.5v0zM183 819.997c-10.667 4.66699 -34 18.3311 -70 40.998s-69.667 49.5 -101 80.5s-44.666 61.167 -39.999 90.5c1.33301 4 3.5 7 6.5 9s6.5 2.66699 10.5 2c4 -1.33301 7 -3.5 9 -6.5s2.66699 -6.5 2 -10.5
c-2.66699 -17.333 6.5 -37.166 27.5 -59.499s47.333 -44.333 79 -66s61.5 -40.167 89.5 -55.5l274 -158c4.66699 -2.66699 7 -6.66699 7 -12s-2 -9.66602 -6 -12.999l-442 -290c-2.66699 -1.33301 -5.33398 -2 -8.00098 -2c-4.66699 0 -8.66699 2.33301 -12 7
c-2 3.33301 -2.66699 6.83301 -2 10.5s2.66699 6.5 6 8.5l335 220l-138 188l-27 16v0z" />
    <glyph glyph-name="onequarter" unicode="&#xbc;" horiz-adv-x="1708" 
 />
    <glyph glyph-name="onehalf" unicode="&#xbd;" horiz-adv-x="2370" 
 />
    <glyph glyph-name="threequarters" unicode="&#xbe;" horiz-adv-x="1708" 
 />
    <glyph glyph-name="questiondown" unicode="&#xbf;" horiz-adv-x="748" 
 />
    <glyph glyph-name="Agrave" unicode="&#xc0;" horiz-adv-x="1540" 
 />
    <glyph glyph-name="Aacute" unicode="&#xc1;" horiz-adv-x="1540" 
 />
    <glyph glyph-name="Acircumflex" unicode="&#xc2;" horiz-adv-x="1540" 
 />
    <glyph glyph-name="Atilde" unicode="&#xc3;" horiz-adv-x="1540" 
 />
    <glyph glyph-name="Adieresis" unicode="&#xc4;" horiz-adv-x="1540" 
 />
    <glyph glyph-name="Aring" unicode="&#xc5;" horiz-adv-x="1540" 
 />
    <glyph glyph-name="AE" unicode="&#xc6;" horiz-adv-x="2090" 
 />
    <glyph glyph-name="Ccedilla" unicode="&#xc7;" horiz-adv-x="1399" 
 />
    <glyph glyph-name="Egrave" unicode="&#xc8;" horiz-adv-x="1151" 
 />
    <glyph glyph-name="Eacute" unicode="&#xc9;" horiz-adv-x="1151" 
 />
    <glyph glyph-name="Ecircumflex" unicode="&#xca;" horiz-adv-x="1151" 
 />
    <glyph glyph-name="Edieresis" unicode="&#xcb;" horiz-adv-x="1151" 
 />
    <glyph glyph-name="Igrave" unicode="&#xcc;" horiz-adv-x="657" 
 />
    <glyph glyph-name="Iacute" unicode="&#xcd;" horiz-adv-x="657" 
 />
    <glyph glyph-name="Icircumflex" unicode="&#xce;" horiz-adv-x="657" 
 />
    <glyph glyph-name="Idieresis" unicode="&#xcf;" horiz-adv-x="657" 
 />
    <glyph glyph-name="Eth" unicode="&#xd0;" horiz-adv-x="1518" 
 />
    <glyph glyph-name="Ntilde" unicode="&#xd1;" horiz-adv-x="1554" 
 />
    <glyph glyph-name="Ograve" unicode="&#xd2;" horiz-adv-x="1614" 
 />
    <glyph glyph-name="Oacute" unicode="&#xd3;" horiz-adv-x="1614" 
 />
    <glyph glyph-name="Ocircumflex" unicode="&#xd4;" horiz-adv-x="1614" 
 />
    <glyph glyph-name="Otilde" unicode="&#xd5;" horiz-adv-x="1614" 
 />
    <glyph glyph-name="Odieresis" unicode="&#xd6;" horiz-adv-x="1614" 
 />
    <glyph glyph-name="multiply" unicode="&#xd7;" horiz-adv-x="750" 
d="M533 270c-7.33301 0 -13.6641 3.33203 -18.9971 9.99902l-270 405c-45.333 -44 -85.333 -85.667 -120 -125s-61.834 -78.833 -81.501 -118.5s-29.5 -82.5 -29.5 -128.5c0 -4.66699 -1.83301 -8.66699 -5.5 -12s-7.83398 -5 -12.501 -5s-8.66699 1.66699 -12 5
s-5 7.33301 -5 12c0 51.333 10.667 98.5 32 141.5s50.333 85.333 87 127s79.334 85.834 128.001 132.501c-153.333 230 -230 347.333 -230 352c0 8 2.83301 14 8.5 18s10.5 6 14.5 6c1.33301 0 4 -0.5 8 -1.5s81.333 -114.833 232 -341.5
c144 137.333 266.333 276.333 367 417c3.33301 4.66699 7.66602 7 12.999 7c3.33301 0 6.66602 -1 9.99902 -3c5.33301 -3.33301 8 -8 8 -14c0 -3.33301 -1 -6.66602 -3 -9.99902c-101.333 -140.667 -226.333 -282.667 -375 -426
c185.333 -278.667 278 -420.334 278 -425.001c0 -15.333 -7.66699 -23 -23 -23z" />
    <glyph glyph-name="Oslash" unicode="&#xd8;" horiz-adv-x="1614" 
 />
    <glyph glyph-name="Ugrave" unicode="&#xd9;" horiz-adv-x="1501" 
 />
    <glyph glyph-name="Uacute" unicode="&#xda;" horiz-adv-x="1501" 
 />
    <glyph glyph-name="Ucircumflex" unicode="&#xdb;" horiz-adv-x="1501" 
 />
    <glyph glyph-name="Udieresis" unicode="&#xdc;" horiz-adv-x="1501" 
 />
    <glyph glyph-name="Yacute" unicode="&#xdd;" horiz-adv-x="1233" 
 />
    <glyph glyph-name="Thorn" unicode="&#xde;" horiz-adv-x="1120" 
 />
    <glyph glyph-name="germandbls" unicode="&#xdf;" horiz-adv-x="1251" 
 />
    <glyph glyph-name="agrave" unicode="&#xe0;" horiz-adv-x="922" 
 />
    <glyph glyph-name="aacute" unicode="&#xe1;" horiz-adv-x="922" 
 />
    <glyph glyph-name="acircumflex" unicode="&#xe2;" horiz-adv-x="922" 
 />
    <glyph glyph-name="atilde" unicode="&#xe3;" horiz-adv-x="922" 
 />
    <glyph glyph-name="adieresis" unicode="&#xe4;" horiz-adv-x="922" 
 />
    <glyph glyph-name="aring" unicode="&#xe5;" horiz-adv-x="922" 
 />
    <glyph glyph-name="ae" unicode="&#xe6;" horiz-adv-x="1451" 
 />
    <glyph glyph-name="ccedilla" unicode="&#xe7;" horiz-adv-x="905" 
 />
    <glyph glyph-name="egrave" unicode="&#xe8;" horiz-adv-x="909" 
 />
    <glyph glyph-name="eacute" unicode="&#xe9;" horiz-adv-x="909" 
 />
    <glyph glyph-name="ecircumflex" unicode="&#xea;" horiz-adv-x="909" 
 />
    <glyph glyph-name="edieresis" unicode="&#xeb;" horiz-adv-x="909" 
 />
    <glyph glyph-name="igrave" unicode="&#xec;" horiz-adv-x="514" 
 />
    <glyph glyph-name="iacute" unicode="&#xed;" horiz-adv-x="514" 
 />
    <glyph glyph-name="icircumflex" unicode="&#xee;" horiz-adv-x="514" 
 />
    <glyph glyph-name="idieresis" unicode="&#xef;" horiz-adv-x="514" 
 />
    <glyph glyph-name="eth" unicode="&#xf0;" horiz-adv-x="1139" 
 />
    <glyph glyph-name="ntilde" unicode="&#xf1;" horiz-adv-x="1108" 
 />
    <glyph glyph-name="ograve" unicode="&#xf2;" horiz-adv-x="1010" 
 />
    <glyph glyph-name="oacute" unicode="&#xf3;" horiz-adv-x="1010" 
 />
    <glyph glyph-name="ocircumflex" unicode="&#xf4;" horiz-adv-x="1010" 
 />
    <glyph glyph-name="otilde" unicode="&#xf5;" horiz-adv-x="1010" 
 />
    <glyph glyph-name="odieresis" unicode="&#xf6;" horiz-adv-x="1010" 
 />
    <glyph glyph-name="divide" unicode="&#xf7;" horiz-adv-x="884" 
d="M405 680c-96.667 0 -216.998 6.33203 -360.998 18.999c-10.667 1.33301 -16 7.66602 -16 18.999c0.666992 4.66699 2.66699 8.33398 6 11.001s7.33301 4 12 4c140.667 -12.667 257 -19 349 -19c4.66699 0 32 0.166992 82 0.5s101.667 4.66602 155 12.999
s90.666 16.5 111.999 24.5s32 12.333 32 13c3.33301 2 6.66602 3 9.99902 3c0.666992 0 2.33398 -0.333008 5.00098 -1s5.16699 -2.66699 7.5 -6s3.5 -6.66602 3.5 -9.99902c0 -6 -2.33301 -10.667 -7 -14c-0.666992 -1.33301 -12.334 -6.66602 -35.001 -15.999
c-68 -27.333 -186.333 -41 -355 -41zM416.002 500.999c-24.667 0 -37 13 -37 39c0 24.667 11.667 37 35 37c25.333 0 38 -13 38 -39c0 -24.667 -12 -37 -36 -37zM416.002 811.999c-24.667 0 -37 13 -37 39c0 24 11.667 36 35 36c25.333 0 38 -12.667 38 -38
c0 -24.667 -12 -37 -36 -37z" />
    <glyph glyph-name="oslash" unicode="&#xf8;" horiz-adv-x="1010" 
 />
    <glyph glyph-name="ugrave" unicode="&#xf9;" horiz-adv-x="1059" 
 />
    <glyph glyph-name="uacute" unicode="&#xfa;" horiz-adv-x="1059" 
 />
    <glyph glyph-name="ucircumflex" unicode="&#xfb;" horiz-adv-x="1059" 
 />
    <glyph glyph-name="udieresis" unicode="&#xfc;" horiz-adv-x="1059" 
 />
    <glyph glyph-name="yacute" unicode="&#xfd;" horiz-adv-x="868" 
 />
    <glyph glyph-name="thorn" unicode="&#xfe;" horiz-adv-x="1010" 
 />
    <glyph glyph-name="ydieresis" unicode="&#xff;" horiz-adv-x="868" 
 />
    <glyph glyph-name="dotlessi" unicode="&#x131;" horiz-adv-x="514" 
 />
    <glyph glyph-name="gravecomb" unicode="&#x300;" horiz-adv-x="0" 
 />
    <glyph glyph-name="acutecomb" unicode="&#x301;" horiz-adv-x="0" 
 />
    <glyph glyph-name="uni0302" unicode="&#x302;" horiz-adv-x="0" 
 />
    <glyph glyph-name="tildecomb" unicode="&#x303;" horiz-adv-x="0" 
 />
    <glyph glyph-name="uni0304" unicode="&#x304;" horiz-adv-x="0" 
 />
    <glyph glyph-name="uni0307" unicode="&#x307;" horiz-adv-x="0" 
 />
    <glyph glyph-name="uni0308" unicode="&#x308;" horiz-adv-x="0" 
 />
    <glyph glyph-name="uni030A" unicode="&#x30a;" horiz-adv-x="0" 
 />
    <glyph glyph-name="uni030C" unicode="&#x30c;" horiz-adv-x="0" 
 />
    <glyph glyph-name="uni0327" unicode="&#x327;" horiz-adv-x="0" 
 />
    <glyph glyph-name="endash" unicode="&#x2013;" horiz-adv-x="1108" 
 />
    <glyph glyph-name="emdash" unicode="&#x2014;" horiz-adv-x="2048" 
 />
    <glyph glyph-name="quoteleft" unicode="&#x2018;" horiz-adv-x="167" 
d="M100 1230l-4.00098 1c-52.667 13.333 -79 49 -79 107c0 23.333 4.66699 50.666 14 81.999c3.33301 11.333 6.5 20.333 9.5 27s4.5 10.334 4.5 11.001c3.33301 5.33301 8 8 14 8l5 -1c5.33301 -3.33301 8 -7.33301 8 -12c0 -2.66699 -0.166992 -4.66699 -0.5 -6
s-1.83301 -5 -4.5 -11c-6.66699 -14.667 -12 -31 -16 -49l30 -120c8.66699 -4 16.334 -7 23.001 -9s10 -6 10 -12c0 -10.667 -4.66699 -16 -14 -16z" />
    <glyph glyph-name="quoteright" unicode="&#x2019;" horiz-adv-x="216" 
d="M23 1230c-3.33301 0 -6.49805 1.33398 -9.49805 4.00098s-4.5 6 -4.5 10c0 7.33301 3.66699 12.333 11 15l22 8l29 120c-4.66699 21.333 -9.66699 37.666 -15 48.999c-2.66699 6 -4.33398 9.66699 -5.00098 11s-1 3 -1 5c0 9.33301 4.66699 14 14 14
c6.66699 0 11 -2.66699 13 -8l5 -11c16 -40 24 -76.333 24 -109c0 -50.667 -21 -84.667 -63 -102c-10.667 -4 -17.334 -6 -20.001 -6z" />
    <glyph glyph-name="quotesinglbase" unicode="&#x201a;" horiz-adv-x="284" 
d="M102 -23c-12 0 -18 4.33301 -18 13c0 7.33301 3.66699 12.333 11 15l22 8l29 120c-4.66699 18.667 -9.66699 35 -15 49l-4 10c-1.33301 2 -2 4 -2 6c0 9.33301 4.66699 14 14 14c6.66699 0 11 -2.66699 13 -8l5 -11c16 -40 24 -76.333 24 -109
c0 -58 -26.333 -93.667 -79 -107z" />
    <glyph glyph-name="quotedblleft" unicode="&#x201c;" horiz-adv-x="417" 
d="M150 1230l-4.00098 1c-52.667 13.333 -79 49 -79 107c0 23.333 4.66699 50.666 14 81.999c3.33301 11.333 6.5 20.333 9.5 27s4.5 10.334 4.5 11.001c3.33301 5.33301 8 8 14 8l5 -1c5.33301 -3.33301 8 -7.33301 8 -12c0 -2.66699 -0.166992 -4.66699 -0.5 -6
s-1.83301 -5 -4.5 -11c-6.66699 -14.667 -12 -31 -16 -49l30 -120c8.66699 -4 16.334 -7 23.001 -9s10 -6 10 -12c0 -10.667 -4.66699 -16 -14 -16zM296.999 1230l-4.00098 1c-52.667 13.333 -79 49 -79 107c0 23.333 4.66699 50.666 14 81.999
c3.33301 11.333 6.5 20.333 9.5 27s4.5 10.334 4.5 11.001c3.33301 5.33301 8 8 14 8l5 -1c5.33301 -3.33301 8 -7.33301 8 -12c0 -2.66699 -0.166992 -4.66699 -0.5 -6s-1.83301 -5 -4.5 -11c-6.66699 -14.667 -12 -31 -16 -49l30 -120c8.66699 -4 16.334 -7 23.001 -9
s10 -6 10 -12c0 -10.667 -4.66699 -16 -14 -16z" />
    <glyph glyph-name="quotedblright" unicode="&#x201d;" horiz-adv-x="417" 
d="M228 1230c-9.33301 0 -14 5.33301 -14 16c0 6 3.33301 10 10 12s14.334 5 23.001 9l30 120c-4.66699 18 -10 34.333 -16 49c-2.66699 6 -4.33398 9.66699 -5.00098 11s-1 3.33301 -1 6c0 4.66699 3 8.66699 9 12l5 1c6 0 10.667 -2.66699 14 -8
c0 -0.666992 1.5 -4.33398 4.5 -11.001s6.16699 -15.667 9.5 -27c9.33301 -31.333 14 -58.666 14 -81.999c0 -58 -26.333 -93.667 -79 -107zM81 1230c-9.33301 0 -14 5.33301 -14 16c0 6 3.33301 10 10 12s14.334 5 23.001 9l30 120c-4.66699 18 -10 34.333 -16 49
c-2.66699 6 -4.33398 9.66699 -5.00098 11s-1 3.33301 -1 6c0 4.66699 3 8.66699 9 12l5 1c6 0 10.667 -2.66699 14 -8c0 -0.666992 1.5 -4.33398 4.5 -11.001s6.16699 -15.667 9.5 -27c9.33301 -31.333 14 -58.666 14 -81.999c0 -58 -26.333 -93.667 -79 -107z" />
    <glyph glyph-name="quotedblbase" unicode="&#x201e;" horiz-adv-x="350" 
d="M35 -23c-12 0 -18 4.33301 -18 13c0 7.33301 3.66699 12.333 11 15l22 8l29 120c-4.66699 18.667 -9.66699 35 -15 49l-4 10c-1.33301 2 -2 4 -2 6c0 9.33301 4.66699 14 14 14c6.66699 0 11 -2.66699 13 -8l5 -11c16 -40 24 -76.333 24 -109
c0 -58 -26.333 -93.667 -79 -107zM144 -23c-12 0 -18 4.33301 -18 13c0 7.33301 3.66699 12.333 11 15l22 8l29 120c-4.66699 18.667 -9.66699 35 -15 49l-4 10c-1.33301 2 -2 4 -2 6c0 9.33301 4.66699 14 14 14c6.66699 0 11 -2.66699 13 -8l5 -11
c16 -40 24 -76.333 24 -109c0 -58 -26.333 -93.667 -79 -107z" />
    <glyph glyph-name="dagger" unicode="&#x2020;" 
 />
    <glyph glyph-name="daggerdbl" unicode="&#x2021;" 
 />
    <glyph glyph-name="bullet" unicode="&#x2022;" horiz-adv-x="1024" 
 />
    <glyph glyph-name="ellipsis" unicode="&#x2026;" horiz-adv-x="2048" 
 />
    <glyph glyph-name="guilsinglleft" unicode="&#x2039;" horiz-adv-x="667" 
d="M499 292c-2.66699 0 -5.33398 0.667969 -8.00098 2.00098s-28.834 17.166 -78.501 47.499s-105.167 68.5 -166.5 114.5c-132.667 100 -199 181.333 -199 244c0 73.333 89.333 170 268 290h1c56.667 37.333 106.334 68 149.001 92c46.667 26.667 71 40 73 40
s4.16699 -0.5 6.5 -1.5s4.33301 -3 6 -6s2.5 -5.5 2.5 -7.5c0 -4.66699 -2.66699 -8.66699 -8 -12v-1c-4.66699 -2 -27.667 -14.667 -69 -38s-89.666 -53.333 -144.999 -90h-1l-50 -36c-93.333 -103.333 -140 -180 -140 -230c0 -48 28 -111.667 84 -191
c40.667 -34 92 -71.167 154 -111.5s104.667 -66.5 128 -78.5c4.66699 -2.66699 7 -6.66699 7 -12c0 -10 -4.66699 -15 -14 -15z" />
    <glyph glyph-name="guilsinglright" unicode="&#x203a;" horiz-adv-x="700" 
d="M118 292c-9.33301 0 -13.998 4.99902 -13.998 14.999c0 5.33301 2.33301 9.33301 7 12c23.333 12 66 38.167 128 78.5s113.333 77.5 154 111.5c56 79.333 84 143 84 191c0 50 -46.667 126.667 -140 230l-50 36h-1c-55.333 36.667 -103.666 66.667 -144.999 90
s-64.333 36 -69 38v1c-4.66699 2.66699 -7.33398 6.66699 -8.00098 12c0 2 0.833008 4.5 2.5 7.5s3.66699 5 6 6s4.5 1.5 6.5 1.5s4 -0.666992 6 -2c51.333 -26 123.333 -69.333 216 -130h1c178.667 -120 268 -216.667 268 -290c0 -62.667 -66.333 -144 -199 -244
c-61.333 -46 -116.833 -84.167 -166.5 -114.5s-75.834 -46.166 -78.501 -47.499s-5.33398 -2 -8.00098 -2z" />
    <glyph glyph-name="fraction" unicode="&#x2044;" horiz-adv-x="342" 
 />
    <glyph glyph-name="fraction" unicode="&#x2215;" horiz-adv-x="342" 
 />
    <glyph glyph-name="franc" unicode="&#x20a3;" 
 />
    <glyph glyph-name="lira" unicode="&#x20a4;" 
 />
    <glyph glyph-name="peseta" unicode="&#x20a7;" horiz-adv-x="2028" 
 />
    <glyph glyph-name="Euro" unicode="&#x20ac;" 
 />
    <glyph glyph-name="uni2116" unicode="&#x2116;" horiz-adv-x="2271" 
 />
    <glyph glyph-name="trademark" unicode="&#x2122;" horiz-adv-x="1497" 
 />
    <glyph glyph-name="partialdiff" unicode="&#x2202;" 
 />
    <glyph glyph-name="Delta" unicode="&#x2206;" horiz-adv-x="1081" 
 />
    <glyph glyph-name="product" unicode="&#x220f;" horiz-adv-x="1515" 
 />
    <glyph glyph-name="summation" unicode="&#x2211;" horiz-adv-x="1206" 
 />
    <glyph glyph-name="minus" unicode="&#x2212;" 
 />
    <glyph glyph-name="radical" unicode="&#x221a;" 
 />
    <glyph glyph-name="infinity" unicode="&#x221e;" 
 />
    <glyph glyph-name="integral" unicode="&#x222b;" horiz-adv-x="665" 
 />
    <glyph glyph-name="approxequal" unicode="&#x2248;" 
 />
    <glyph glyph-name="lessequal" unicode="&#x2264;" horiz-adv-x="1000" 
d="M529 390c-74 0 -145.667 5 -215 15c-169.333 23.333 -254 42 -254 56c0 3.33301 1 6.33301 3 9c390.667 392.667 587.334 589 590.001 589c3.33301 0 6.33301 -1.33301 9 -4s4 -5.33398 4 -8.00098c0 -3.33301 -110 -115.666 -330 -336.999l-36 -48
c-63.333 -80 -95 -133 -95 -159c0 -4.66699 0.666992 -9 2 -13c5.33301 -10 23.666 -21.167 54.999 -33.5s70 -23.5 116 -33.5c50 -5.33301 99.333 -8 148 -8c187.333 0 298 42 332 126c2 5.33301 5.66699 8 11 8c8.66699 0 13 -4 13 -12l-1 -5
c-38 -94 -155.333 -141.333 -352 -142zM933 239l-128.999 18.999c-184.667 26.667 -344.334 40 -479.001 40c-25.333 0 -58.5 -1.33301 -99.5 -4s-73.333 -8.83398 -97 -18.501s-36.5 -18.5 -38.5 -26.5c-4.66699 -6.66699 -10.667 -10 -18 -10
c-3.33301 0 -6.33301 0.666992 -9 2c-7.33301 4.66699 -11 10.334 -11 17.001c0 25.333 29 46 87 62c44 11.333 108 17 192 17c132.667 0 292.334 -13.333 479.001 -40c79.333 -11.333 121.333 -17.666 126 -18.999c11.333 -1.33301 17 -8 17 -20
c-0.666992 -12.667 -7.33398 -19 -20.001 -19z" />
    <glyph glyph-name="greaterequal" unicode="&#x2265;" horiz-adv-x="1067" 
d="M412 390c-198.667 0 -316.999 47.333 -354.999 142l-1 5c0 8 4.33301 12 13 12c5.33301 0 9 -2.66699 11 -8c34 -83.333 143.667 -125.333 329 -126c50.667 0 101 2.66699 151 8c46 10 84.667 21.167 116 33.5s49.666 23.5 54.999 33.5c1.33301 4 2 8.33301 2 13
c0 26 -31.667 79 -95 159l-36 48c-220 221.333 -330 333.666 -330 336.999c0 2.66699 1.33301 5.33398 4 8.00098s5.66699 4 9 4s200 -196.333 590 -589c2 -2.66699 3 -5.66699 3 -9c0 -6 -3 -10 -9 -12l-72 -15c-136 -29.333 -264.333 -44 -385 -44zM866.001 239
c-7.33301 0 -13.3311 3.33301 -17.998 10c-2 8 -14.667 17 -38 27c-36.667 14.667 -102.334 22 -197.001 22c-136 0 -295.667 -13.333 -479 -40c-78.667 -11.333 -121.334 -17.666 -128.001 -18.999c-4.66699 0 -9.33398 1.5 -14.001 4.5s-7 8.5 -7 16.5
c0 10.667 5.66699 16.667 17 18c4.66699 1.33301 46.667 7.66602 126 18.999c186.667 26.667 346.334 40 479.001 40c84 0 148 -5.66699 192 -17c58 -16 87 -36.667 87 -62c0 -12.667 -6.66699 -19 -20 -19z" />
    <glyph glyph-name="uniFB01" unicode="&#xfb01;" horiz-adv-x="1073" 
 />
    <glyph glyph-name="uniFB02" unicode="&#xfb02;" horiz-adv-x="1081" 
 />
    </font>
</defs>
</svg>
